<svg width="72" height="68" viewBox="0 0 72 68" fill="none" xmlns="http://www.w3.org/2000/svg">
<g clip-path="url(#clip0_82_353)">
<mask id="mask0_82_353" style="mask-type:luminance" maskUnits="userSpaceOnUse" x="0" y="0" width="71" height="68">
<path d="M70.9385 0H0.75V68H70.9385V0Z" fill="white"/>
</mask>
<g mask="url(#mask0_82_353)">
<path d="M58.5093 0H13.1792C6.31474 0 0.75 5.52947 0.75 12.3504V55.6496C0.75 62.4705 6.31474 68 13.1792 68H58.5093C65.3737 68 70.9385 62.4705 70.9385 55.6496V12.3504C70.9385 5.52947 65.3737 0 58.5093 0Z" fill="#00005B"/>
<path d="M28.9467 40.6839H18.0701L15.8571 47.5278C15.827 47.6524 15.7541 47.7626 15.6509 47.8395C15.5478 47.9163 15.4208 47.9551 15.2921 47.9489H9.78317C9.46905 47.9489 9.35913 47.7773 9.45357 47.4343L18.8706 20.5967C18.9647 20.316 19.0589 20.0416 19.153 19.6826C19.2764 19.0584 19.3394 18.4239 19.3414 17.7878C19.335 17.7434 19.3392 17.698 19.3535 17.6554C19.3677 17.6128 19.3919 17.574 19.4239 17.5422C19.4558 17.5105 19.4948 17.4865 19.5377 17.4723C19.5806 17.4581 19.6262 17.4539 19.671 17.4603H27.1576C27.3767 17.4603 27.5023 17.5382 27.5342 17.6943L38.2224 47.481C38.3165 47.7931 38.2223 47.9491 37.94 47.9489H31.8189C31.7138 47.9605 31.608 47.9337 31.5213 47.8734C31.4347 47.8131 31.3731 47.7235 31.3481 47.6214L28.9467 40.6839ZM19.7653 34.9134H27.2046C27.0162 34.2898 26.7965 33.5879 26.5453 32.8079C26.2937 32.0286 26.0269 31.1943 25.7449 30.3048C25.4624 29.416 25.18 28.527 24.8974 27.638C24.615 26.7491 24.356 25.8914 24.1205 25.0647C23.8851 24.2387 23.6732 23.4824 23.4849 22.7957H23.4377C23.1728 24.0593 22.8428 25.3085 22.449 26.5386C22.009 27.9422 21.5617 29.377 21.1071 30.8429C20.6517 32.3094 20.2044 33.6662 19.7653 34.9134Z" fill="#9999FF"/>
<path d="M55.5499 38.0201H46.2742C46.3878 38.9321 46.6926 39.8102 47.1689 40.5979C47.6954 41.3779 48.4401 41.9877 49.3112 42.3524C50.4916 42.8599 51.7685 43.1086 53.0545 43.0814C54.0748 43.062 55.0912 42.951 56.0914 42.7501C56.986 42.6301 57.8627 42.403 58.7025 42.0738C58.8591 41.9495 58.938 42.027 58.938 42.3077V46.7524C58.9457 46.8734 58.9213 46.9945 58.8673 47.1033C58.8134 47.1884 58.741 47.2603 58.6554 47.3138C57.7239 47.7238 56.7437 48.0139 55.7383 48.1773C54.3724 48.4322 52.9843 48.5497 51.5948 48.5282C49.3656 48.5282 47.4978 48.1851 45.9917 47.4989C44.5678 46.8756 43.3102 45.9304 42.3191 44.7385C41.3934 43.6155 40.7048 42.3186 40.2944 40.9254C39.8881 39.5503 39.6819 38.1244 39.6824 36.6912C39.678 35.1264 39.9244 33.5707 40.4122 32.0828C40.882 30.6314 41.6249 29.2818 42.6017 28.106C43.565 26.9438 44.7696 26.0022 46.133 25.3455C47.5139 24.6752 49.1464 24.4346 51.0298 24.4346C52.5917 24.3955 54.1431 24.699 55.5735 25.3236C56.7763 25.8333 57.8351 26.6279 58.6575 27.638C59.4289 28.6272 60.0187 29.7438 60.3997 30.9365C60.7707 32.0859 60.9612 33.2853 60.9647 34.4923C60.9647 35.1787 60.9411 35.8025 60.894 36.3637C60.847 36.9251 60.8078 37.3306 60.7763 37.5801C60.7642 37.6833 60.7142 37.7784 60.6361 37.8474C60.5579 37.9164 60.4571 37.9545 60.3525 37.9545C60.1642 37.9545 59.8424 37.9779 59.3873 38.0247C58.9319 38.0714 58.3669 38.1026 57.6923 38.1182C57.0169 38.1343 56.3033 38.0201 55.5499 38.0201ZM46.2742 33.758H52.4424C53.1957 33.758 53.7529 33.7502 54.1138 33.7347C54.3553 33.7106 54.5885 33.6338 54.7966 33.5097V33.229C54.7871 32.8631 54.7237 32.5005 54.6083 32.153C54.3542 31.3547 53.8435 30.6615 53.1545 30.1797C52.4654 29.6979 51.6364 29.4542 50.7945 29.4861C50.0021 29.4385 49.2129 29.6211 48.5231 30.0116C47.8333 30.4021 47.2728 30.9835 46.9099 31.6851C46.5873 32.3376 46.3727 33.0376 46.2742 33.758Z" fill="#9999FF"/>
</g>
</g>
<defs>
<clipPath id="clip0_82_353">
<rect width="71" height="68" fill="white" transform="translate(0.75)"/>
</clipPath>
</defs>
</svg>
