<svg width="476" height="476" viewBox="0 0 476 476" fill="none" xmlns="http://www.w3.org/2000/svg">
<path d="M151.377 311.951L251.528 82.9096C251.528 82.9096 258.02 80.6344 258.02 80.7772C261.067 80.3012 264.18 80.9676 267.131 81.8624C268.788 82.3575 270.425 82.9382 271.891 83.8521C273.062 84.5852 274.1 85.5181 275.042 86.5272C277.641 89.3166 279.564 92.8295 279.993 96.6184L180.337 326.431C180.337 326.431 180.099 318.035 180.061 318.044C179.861 317.244 179.576 316.331 178.805 316.035C178.509 315.921 178.176 315.921 177.853 315.969C176.434 316.159 175.016 317.092 173.692 316.549C172.816 316.188 172.312 315.274 171.998 314.379C171.693 313.484 171.503 312.523 170.97 311.742C170.275 310.723 168.999 310.133 167.78 310.266C166.781 310.371 165.876 310.904 164.953 311.294C163.687 311.837 162.164 312.104 160.983 311.409C160.231 310.971 159.736 310.219 159.184 309.552C158.632 308.886 157.927 308.239 157.061 308.181C155.899 308.096 154.966 309.057 154.233 309.962C153.5 310.857 152.653 311.866 151.377 311.951Z" fill="#FFDC7E"/>
<path d="M251.88 82.7003L255.165 75.6079C255.165 75.6079 260.248 73.3231 260.21 73.5515C264.209 72.3425 268.645 72.6186 272.462 74.3036C276.289 75.9982 279.469 79.0827 281.268 82.8621C281.516 83.3762 281.735 83.9188 281.821 84.4805C281.916 85.185 281.801 85.8895 281.659 86.5844C281.145 89.1739 280.402 91.7157 279.441 94.1814C279.441 94.1814 276.308 88.06 276.09 87.9934C273.443 84.5471 269.568 82.0719 265.332 81.1104C261.105 80.1489 256.545 80.7106 251.88 82.7003Z" fill="#1A1340"/>
<path d="M255.241 75.1604C255.241 75.1604 265.361 52.579 265.437 52.4171C267.341 50.5607 270.12 49.961 272.767 49.7896C277.003 49.5135 281.364 50.1704 285.124 52.1315C288.884 54.0927 291.997 57.4627 293.216 61.5278C293.587 62.7654 293.778 64.0791 293.597 65.3643C293.597 65.3643 283.591 84.966 283.468 84.8423C283.239 85.0612 282.934 85.1945 282.62 85.2135C282.382 83.6237 281.592 82.1576 280.631 80.8629C277.965 77.2643 273.919 74.7415 269.53 73.8086C265.142 72.8756 260.486 73.4754 255.241 75.1604Z" fill="#47C9AA"/>
<path d="M157.442 347.832C157.27 345.424 155.538 343.301 153.358 342.263C151.178 341.225 148.626 341.178 146.275 341.692L142.828 361.151L157.442 347.832Z" fill="#3E6EFF"/>
<path d="M162.249 310.466C162.183 310.466 162.116 310.457 162.059 310.428C161.821 310.323 161.707 310.038 161.811 309.8L262.876 81.0057C262.98 80.7677 263.266 80.6535 263.504 80.7582C263.742 80.8629 263.856 81.1485 263.742 81.3865L162.678 310.19C162.602 310.362 162.43 310.466 162.249 310.466Z" fill="#3E6EFF"/>
<path d="M174.083 315.874C174.016 315.874 173.949 315.864 173.892 315.836C173.654 315.731 173.54 315.445 173.645 315.207L274.157 86.2417C274.262 86.0037 274.547 85.8895 274.785 85.9942C275.023 86.0989 275.138 86.3845 275.033 86.6225L174.521 315.588C174.435 315.769 174.264 315.874 174.083 315.874Z" fill="#3E6EFF"/>
<path d="M279.517 94.8288C279.317 94.8288 279.136 94.705 279.069 94.5051C277.308 89.2786 273.214 84.8804 268.121 82.7574C263.028 80.6345 257.03 80.8154 252.071 83.243C251.842 83.3572 251.547 83.262 251.433 83.024C251.318 82.786 251.414 82.5004 251.652 82.3862C256.85 79.8443 263.142 79.6539 268.483 81.8816C273.824 84.1093 278.117 88.717 279.964 94.2005C280.05 94.448 279.917 94.7241 279.669 94.8002C279.621 94.8193 279.564 94.8288 279.517 94.8288Z" fill="#3E6EFF"/>
<path d="M282.868 85.242C282.687 85.242 282.516 85.1373 282.43 84.9564C280.278 80.1298 276.004 76.2361 270.996 74.5511C265.989 72.866 260.229 73.3801 255.593 75.922C255.365 76.0457 255.069 75.9696 254.946 75.7316C254.822 75.5031 254.908 75.208 255.136 75.0842C260.001 72.4091 266.046 71.876 271.301 73.6467C276.556 75.4174 281.049 79.5015 283.306 84.5661C283.41 84.8041 283.306 85.0897 283.068 85.1944C283.001 85.2325 282.934 85.242 282.868 85.242Z" fill="#3E6EFF"/>
<path d="M142.809 361.979C142.733 361.979 142.657 361.96 142.581 361.922C142.4 361.827 142.305 361.627 142.333 361.417L150.978 312.228C150.997 312.123 151.054 312.028 151.13 311.951L154.176 309.229C155.205 308.305 156.452 307.41 157.794 307.772C158.775 308.039 159.336 308.829 159.879 309.59C160.25 310.114 160.602 310.619 161.069 310.914C162.202 311.647 163.773 311.114 165.305 310.419C166.895 309.695 168.923 309.019 170.456 310.124C171.541 310.904 171.865 312.256 172.16 313.437L172.236 313.741C172.493 314.769 173.016 316.045 174.035 316.283C174.625 316.426 175.282 316.197 175.977 315.95C176.844 315.645 177.824 315.302 178.767 315.74C180.156 316.378 180.337 318.139 180.356 319.406L180.442 326.317C180.442 326.45 180.385 326.574 180.29 326.669L143.143 361.827C143.047 361.931 142.933 361.979 142.809 361.979ZM151.901 312.561L143.533 360.17L179.481 326.146L179.404 319.444C179.395 318.435 179.271 317.045 178.376 316.626C177.776 316.35 177.091 316.588 176.301 316.873C175.511 317.149 174.692 317.435 173.826 317.235C172.645 316.959 171.779 315.845 171.322 313.998L171.246 313.684C170.979 312.608 170.713 311.494 169.913 310.914C168.78 310.095 167.066 310.685 165.715 311.304C163.934 312.104 162.087 312.713 160.574 311.732C159.955 311.333 159.536 310.733 159.127 310.162C158.66 309.505 158.222 308.886 157.575 308.705C156.661 308.458 155.681 309.2 154.833 309.952L151.901 312.561Z" fill="#3E6EFF"/>
<path d="M260.077 78.5209C259.553 78.5209 259.125 78.0925 259.125 77.5689C259.125 77.0453 259.553 76.6169 260.077 76.6169C260.6 76.6169 261.029 77.0453 261.029 77.5689C261.029 78.0925 260.6 78.5209 260.077 78.5209ZM260.077 77.5594C260.077 77.5689 260.077 77.5689 260.077 77.5594Z" fill="#FFDC7E"/>
<path d="M271.025 80.3583C270.501 80.3583 270.073 79.9299 270.073 79.4063C270.073 78.8827 270.501 78.4543 271.025 78.4543C271.548 78.4543 271.977 78.8827 271.977 79.4063C271.977 79.9299 271.548 80.3583 271.025 80.3583Z" fill="#FFDC7E"/>
<path d="M278.403 86.194C277.879 86.194 277.451 85.7656 277.451 85.242C277.451 84.7184 277.879 84.29 278.403 84.29C278.926 84.29 279.355 84.7184 279.355 85.242C279.355 85.7656 278.926 86.194 278.403 86.194Z" fill="#FFDC7E"/>
<path d="M280.973 85.718C279.05 82.6526 278.85 78.578 280.459 75.3317C281.078 74.0846 281.982 72.9327 283.239 72.3424C284.458 71.7712 285.857 71.7903 287.171 71.5332C290.522 70.8859 293.235 68.5249 296.262 66.9541C298.481 65.7927 301.156 65.0501 303.479 65.9736C305.164 66.64 306.449 68.106 308.162 68.6868C309.4 69.1056 310.752 69.0295 312.056 69.1818C313.36 69.3341 314.76 69.8006 315.426 70.9335C316.331 72.4567 315.54 74.4654 316.159 76.1219C316.645 77.4166 317.882 78.2639 318.653 79.4158C319.929 81.3388 319.739 83.8616 319.215 86.1084C318.692 88.3551 317.892 90.6018 318.092 92.8961C318.168 93.7624 318.387 94.6288 318.301 95.4951C318.073 97.7228 315.959 99.2079 314.769 101.112C313.636 102.93 313.341 105.158 312.304 107.033C311.342 108.756 309.79 110.108 308.905 111.869C308.581 108.671 307.82 105.52 306.649 102.521C306.239 101.464 305.744 100.388 304.859 99.6934C303.888 98.9318 302.574 98.7224 301.632 97.9322C300.128 96.666 300.061 94.4288 299.594 92.5153C298.738 88.9263 295.986 85.8323 292.521 84.5566C289.056 83.2809 284.972 83.8712 280.973 85.718Z" fill="#3E6EFF"/>
<path d="M298.243 119.828C300.946 119.371 303.764 119.543 306.382 120.352C307.724 120.761 309.086 121.38 309.895 122.522C310.276 123.056 310.761 123.779 311.38 123.56C311.38 123.56 329.116 132.242 329.183 132.433C331.258 134.775 332.41 137.821 332.867 140.915C333.324 144.009 333.114 147.16 332.743 150.273C332.315 153.862 331.486 157.727 328.707 160.041L317.178 168.123C317.178 168.123 310.952 180.794 311.095 181.07C316.102 184.821 318.101 191.371 318.844 197.588C319.291 201.319 319.291 205.461 316.94 208.402C315.959 209.63 314.645 210.535 313.322 211.382C307.829 214.876 301.784 217.503 295.482 219.141C296.729 216.609 297.985 213.581 296.672 211.077C296.443 210.649 296.148 210.249 296.043 209.773C295.91 209.193 296.101 208.583 296.291 208.022C297.709 203.871 299.728 199.92 302.269 196.341C302.269 196.341 282.972 195.864 282.573 196.055C266.56 197.559 250.709 200.729 235.344 205.48L232.783 206.175L234.316 201.186C234.316 201.186 227.633 202.614 227.576 202.367C226.5 202.367 225.491 201.795 224.748 201.024C224.006 200.253 223.511 199.273 223.101 198.283C222.168 196.055 221.587 193.618 221.892 191.219C222.197 188.82 223.491 186.478 225.595 185.288L249.062 179.414L258.82 154.31L252.842 159.136C252.842 159.136 267.921 125.14 268.197 124.855C271.444 122.551 275.509 121.418 279.479 121.704C282.182 121.894 284.905 122.722 287.552 122.142C289.179 121.789 290.646 120.923 292.216 120.38C293.816 119.866 295.71 120.257 298.243 119.828Z" fill="#1A1340"/>
<path d="M213.467 169.951L231.45 128.92L231.65 124.998C231.65 124.998 231.917 124.798 231.955 124.56C232.526 121.77 235.791 120.133 236.267 117.334C236.267 117.334 234.896 116.953 234.706 116.963C231.698 117.125 229.023 119.086 227.223 121.513C225.424 123.931 224.358 126.806 223.244 129.605C221.378 134.27 219.312 138.849 217.066 143.343C215.314 146.846 213.457 150.311 212.191 154.015C210.925 157.718 210.278 161.726 211.039 165.572C211.363 167.181 212.029 168.885 213.467 169.951Z" fill="#1A1340"/>
<path d="M194.941 383.675C202.224 381.609 208.574 377.097 215.666 374.45C216.409 374.174 217.199 373.908 217.979 374.003C218.77 374.098 219.56 374.65 219.864 375.773C221.216 381.276 221.54 387.036 220.797 392.652C220.721 393.224 220.626 393.823 220.274 394.28C220.017 394.614 219.655 394.842 219.293 395.061C218.36 395.632 217.427 396.203 216.504 396.775C215.399 397.45 214.286 398.136 213.048 398.526C211.553 399.012 209.954 399.04 208.393 399.259C201.738 400.192 196.064 404.372 190.143 408.456C182.584 413.796 173.654 417.185 164.448 418.204C162.278 418.442 160.031 418.547 157.946 417.899C157.946 417.899 161.659 414.606 161.926 414.444C168.352 409.179 176.149 405.504 181.584 399.231C181.584 399.231 190.419 388.873 190.333 388.892C191.028 387.626 191.723 386.36 192.418 385.094C192.571 384.808 192.742 384.513 192.989 384.303C193.323 384.037 193.77 384.008 194.941 383.675Z" fill="#1A1340"/>
<path d="M301.441 259.049C301.765 263.161 302.641 267.236 304.05 271.111C304.345 271.92 304.716 272.786 305.487 273.186C306.211 273.557 307.106 273.405 307.867 273.681C308.581 273.948 309.105 274.557 309.581 275.157C312.351 278.631 314.722 282.411 316.664 286.409C317.054 287.209 317.454 288.066 318.196 288.551C318.739 288.903 319.387 289.018 320.024 289.094C320.71 289.18 321.462 289.199 322.014 288.789C322.89 288.151 322.804 286.838 322.633 285.771C321.947 281.544 321.262 277.308 320.196 272.672C319.301 268.407 318.377 264.085 316.416 260.191C314.455 256.297 311.304 252.813 307.182 251.395C307.03 251.347 306.868 251.29 306.715 251.318C306.458 251.357 306.268 251.575 306.097 251.775C304.773 253.394 303.441 255.012 302.117 256.631C301.556 257.335 301.365 258.097 301.441 259.049Z" fill="#1A1340"/>
<path d="M219.845 235.306L232.831 206.06C232.831 206.06 252.556 200.386 253.232 200.567C257.126 200.558 261.019 200.843 265.065 201.329C274.89 201.605 284.648 203.947 293.54 208.145C295.063 208.859 296.738 209.878 296.957 211.544C297.119 212.762 296.434 213.914 296.043 215.085C295.168 217.694 295.758 220.521 295.948 223.273C296.491 230.955 293.759 238.666 289.199 244.864C286.647 248.329 283.534 251.385 281.297 255.069C279.431 258.154 278.212 261.629 277.489 265.884C275.652 270.054 276.166 275.414 272.853 278.555C271.625 279.717 270.025 280.393 268.474 281.04C264.504 282.687 260.401 284.372 256.098 284.334C253.422 284.315 250.814 283.629 248.244 282.896C240.589 280.726 233.059 278.127 225.691 275.118C223.215 274.109 220.693 273.034 218.027 272.929C217.399 272.9 216.742 272.919 216.19 272.615C215.638 272.31 215.295 271.529 215.695 271.034L219.845 235.306Z" fill="#47C9AA"/>
<path d="M286.495 280.431C287.456 277.965 288.208 275.385 288.351 272.738C288.494 270.092 288.008 267.369 286.619 265.113C286.333 264.637 286 264.18 285.886 263.637C285.771 263.095 285.952 262.438 286.457 262.209C286.457 262.209 304.269 258.715 304.307 258.963C305.792 259.325 306.906 260.619 307.41 262.067C307.915 263.504 307.896 265.075 307.782 266.598C307.677 267.902 307.496 269.197 307.248 270.473C307.029 271.587 306.744 272.71 306.135 273.671L286.495 280.431Z" fill="#47C9AA"/>
<path d="M205.784 352.211C210.782 350.631 216.247 350.517 221.302 351.907C223.339 352.468 225.396 353.316 226.804 354.887C226.804 354.887 218.246 372.365 218.36 372.156C217.799 373.517 217.58 375.021 217.741 376.487C217.808 377.116 217.941 377.754 217.875 378.382C217.799 379.105 217.465 379.781 217.056 380.381C215.914 382.057 214.124 383.294 212.153 383.761C210.954 384.046 209.697 384.065 208.526 384.427L203.652 393.157C203.652 393.157 202.9 384.456 202.995 384.475C200.386 383.551 197.55 383.275 194.817 383.675L205.784 352.211Z" fill="#47C9AA"/>
<path d="M282.792 80.1774C280.526 84.5851 280.059 89.6688 279.888 94.6097C279.764 98.2368 279.774 101.864 279.793 105.501L275.556 109.461L279.974 108.814C279.974 108.814 280.926 114.44 281.068 114.611C281.202 116.553 281.754 118.467 282.677 120.18C283.077 120.932 283.572 121.656 284.267 122.151C285.162 122.789 286.304 122.989 287.399 122.903C288.494 122.817 289.551 122.484 290.598 122.151C290.389 123.474 290.331 124.826 290.427 126.168C290.427 126.168 294.911 126.816 295.149 126.778C299.137 127.13 303.212 126.34 306.772 124.522C306.772 124.522 309.714 109.128 309.638 108.994C309.981 106.062 309.733 103.054 308.895 100.407C311.742 97.4562 312.732 92.858 311.361 88.9929C310.99 87.9362 310.238 86.7938 309.114 86.7843C308.296 86.7747 307.62 87.365 307.03 87.9266C306.325 88.593 305.621 89.2594 304.916 89.9258C305.259 88.8215 305.154 87.5934 304.64 86.5558C304.174 85.6038 303.383 84.8517 302.755 84.0044C302.127 83.1571 301.622 82.0909 301.603 81.0246C297.7 81.9957 293.673 82.4526 289.656 82.3574C287.352 82.3098 284.819 81.9766 282.792 80.1774Z" fill="#FFDC7E"/>
<path d="M234.706 120.238C238.876 117.448 242.436 113.764 245.092 109.509C245.74 108.471 246.416 107.319 247.558 106.862C247.853 106.748 248.186 106.681 248.482 106.795C249.091 107.024 249.215 107.814 249.215 108.471C249.215 109.594 249.138 110.718 248.977 111.831C250.014 111.194 251.157 110.737 252.356 110.48C252.87 110.365 253.413 110.299 253.927 110.394C254.727 110.546 255.393 111.079 256.031 111.593C256.031 111.593 260.458 114.383 260.686 114.497C260.81 115.182 260.658 115.916 260.267 116.506C260.182 116.639 260.077 116.763 260.048 116.915C259.972 117.248 260.22 117.562 260.486 117.781C260.753 118 261.048 118.219 261.143 118.553C261.229 118.867 261.076 119.209 260.848 119.447C260.62 119.676 260.315 119.819 260.02 119.962C259.401 120.247 258.754 120.552 258.078 120.561C257.744 120.571 257.411 120.504 257.078 120.476C256.593 120.438 256.098 120.476 255.622 120.599C255.622 120.599 258.516 124.15 258.458 124.341C258.497 124.702 258.287 125.064 257.992 125.274C257.697 125.493 257.335 125.588 256.973 125.654C256.231 125.797 255.469 125.826 254.727 125.74C255.022 125.95 255.317 126.178 255.526 126.473C255.726 126.778 255.812 127.178 255.65 127.511C255.422 127.968 254.831 128.082 254.317 128.139C253.67 128.215 253.004 128.282 252.385 128.092C251.1 127.701 250.386 126.349 249.824 125.131C249.824 125.131 245.197 125.731 245.064 125.892C244.064 128.054 242.208 129.796 239.99 130.652C238.286 131.309 236.429 131.452 234.611 131.595C234.221 131.624 233.811 131.652 233.459 131.49C233.126 131.347 232.878 131.062 232.669 130.767C231.603 129.253 231.307 127.273 231.688 125.455C232.031 123.655 232.678 121.589 234.706 120.238Z" fill="#FFDC7E"/>
<path d="M224.777 200.691C222.416 197.473 221.654 193.151 222.768 189.324C222.987 188.553 223.254 187.62 222.701 187.039C222.701 187.039 207.803 183.089 207.622 183.26C207.136 183.812 207.022 184.612 207.165 185.335C207.308 186.049 207.679 186.706 208.069 187.325C208.212 187.544 208.355 187.782 208.383 188.039C208.45 188.734 207.669 189.172 207.022 189.438C205.346 190.133 203.738 190.962 202.205 191.923C201.557 192.323 200.882 192.818 200.71 193.561C200.586 194.103 200.758 194.684 200.663 195.236C200.463 196.283 199.33 196.95 199.082 197.987C198.892 198.806 199.292 199.701 198.958 200.472C198.692 201.081 198.006 201.453 197.788 202.081C197.645 202.5 197.73 202.966 197.683 203.404C197.607 204.128 197.178 204.766 197.074 205.48C196.931 206.47 197.521 207.517 198.435 207.926C198.435 207.926 205.289 206.003 205.756 205.832C208.669 207.069 211.906 208.326 214.904 207.336C215.799 207.041 216.618 206.555 217.408 206.06C219.893 204.49 222.235 202.719 224.777 200.691Z" fill="#FFDC7E"/>
<path d="M215.866 271.853C218.741 270.301 221.654 268.778 224.786 267.855C227.918 266.922 231.298 266.617 234.449 267.493L233.887 270.225C233.887 270.225 242.931 268.492 243.103 268.34C249.31 267.293 255.679 267.207 261.914 268.064C264.056 268.359 266.236 268.788 268.083 269.92L262.276 282.963C262.276 282.963 264.009 282.677 264.475 282.573C267.284 281.592 270.14 280.592 272.605 278.926C273.529 278.308 274.414 277.565 274.9 276.565C275.261 275.832 275.385 275.004 275.528 274.195C276.175 270.463 277.337 266.817 278.955 263.399C278.955 263.399 286.362 262.647 286.79 262.771C288.294 263.533 288.932 265.341 289.218 267.007C290.027 271.767 289.075 276.813 286.59 280.954L258.306 290.998C258.306 290.998 226.747 355.248 226.824 355.391C220.559 351.792 212.858 350.802 205.889 352.697C205.889 352.697 224.52 297.376 224.51 297.186C221.549 297.928 218.351 296.234 216.647 293.692C214.943 291.16 214.486 287.97 214.571 284.914L215.866 271.853Z" fill="#FFDC7E"/>
<path d="M254.736 200.605C258.297 200.682 261.857 200.929 265.398 201.338C268.131 201.653 270.853 202.062 273.576 202.471C281.421 203.661 289.627 205.013 295.92 209.83C297.557 205.108 299.423 200.472 301.984 196.331C296.148 195.541 290.236 195.95 284.362 196.36C274.395 197.054 264.361 197.759 254.736 200.605Z" fill="#FFDC7E"/>
<path d="M278.565 87.2983C278.136 89.4403 277.879 91.6299 277.822 93.8195C277.794 94.7715 277.822 95.7711 278.317 96.5803C278.784 97.3324 279.612 97.7989 280.478 97.9893C281.345 98.1702 282.239 98.094 283.106 97.9512C284.039 97.7894 284.981 97.5419 285.771 97.0278C286.571 96.5137 287.218 95.714 287.371 94.8001C288.18 94.8287 288.846 95.4284 289.341 96.0567C289.836 96.6851 290.255 97.4086 290.912 97.8846C291.607 98.3891 292.492 98.551 293.349 98.5986C295.863 98.7319 298.404 97.9417 300.404 96.409C301.051 95.9139 301.67 95.2761 301.774 94.4669C301.86 93.7815 301.565 93.1246 301.289 92.4963C300.594 90.9159 300.023 89.288 299.575 87.622C299.575 87.622 288.523 88.8311 288.237 88.9263C286.457 88.8596 284.686 88.8025 282.906 88.7359C281.602 88.6787 280.145 88.574 278.565 87.2983Z" fill="#47C9AA"/>
<path d="M293.178 95.8474C293.767 95.8474 294.244 94.7307 294.244 93.3531C294.244 91.9756 293.767 90.8589 293.178 90.8589C292.589 90.8589 292.112 91.9756 292.112 93.3531C292.112 94.7307 292.589 95.8474 293.178 95.8474Z" fill="#3E6EFF"/>
<path d="M283.315 95.8474C283.904 95.8474 284.381 94.7307 284.381 93.3531C284.381 91.9756 283.904 90.8589 283.315 90.8589C282.726 90.8589 282.249 91.9756 282.249 93.3531C282.249 94.7307 282.726 95.8474 283.315 95.8474Z" fill="#3E6EFF"/>
<path d="M279.84 105.548C279.583 105.548 279.364 105.339 279.364 105.082C279.288 99.9885 279.46 94.8382 279.869 89.764C280.136 86.3654 280.526 83.0524 282.239 79.8347C282.306 79.7109 282.43 79.6157 282.573 79.5872C282.715 79.5586 282.858 79.5967 282.972 79.6919C284.334 80.8438 286.19 81.5768 288.323 81.8244C290.446 82.0624 292.626 81.7958 294.292 81.5292C295.082 81.4055 295.872 81.2627 296.672 81.1199C298.252 80.8343 299.89 80.5392 301.698 80.3488C301.832 80.3392 301.965 80.3773 302.07 80.4725C302.174 80.5677 302.231 80.6915 302.231 80.8248C302.222 81.891 302.27 82.9001 302.822 83.576C302.984 83.7664 303.193 83.9378 303.412 84.1187C303.574 84.252 303.745 84.3948 303.897 84.5376C304.983 85.5943 305.316 87.0699 305.43 88.6121L306.135 87.7172C306.753 86.9271 307.506 86.0893 308.581 85.9941C309.676 85.8989 310.752 86.6605 311.456 88.0314C312.98 91.0112 312.389 94.4669 311.618 96.8374C311.285 97.8751 310.809 99.046 309.857 99.8552C308.943 100.636 307.363 101.007 306.239 100.179C306.03 100.017 305.982 99.722 306.144 99.5125C306.306 99.3031 306.601 99.265 306.811 99.4173C307.506 99.9409 308.591 99.6839 309.238 99.1317C310.009 98.4748 310.419 97.4562 310.714 96.5423C311.428 94.3432 311.989 91.154 310.609 88.4598C310.209 87.6792 309.505 86.8795 308.667 86.9366C307.972 86.9937 307.41 87.6411 306.887 88.298L305.383 90.1924C305.259 90.3543 305.049 90.4114 304.859 90.3448C304.669 90.2781 304.535 90.1068 304.535 89.9068C304.497 88.1266 304.364 86.3083 303.241 85.204C303.107 85.0707 302.964 84.9564 302.812 84.8422C302.565 84.6423 302.308 84.4328 302.089 84.1663C301.441 83.3761 301.298 82.386 301.279 81.3388C299.709 81.5292 298.252 81.7863 296.843 82.0433C296.034 82.1861 295.244 82.3289 294.444 82.4622C292.721 82.7383 290.465 83.0144 288.218 82.7573C286.133 82.5193 284.277 81.8434 282.83 80.7772C281.421 83.6808 281.078 86.7176 280.83 89.8307C280.431 94.8763 280.259 99.998 280.335 105.063C280.316 105.32 280.107 105.539 279.84 105.548Z" fill="#3E6EFF"/>
<path d="M273.224 110.965C273.034 110.965 272.862 110.86 272.786 110.68C272.691 110.461 272.776 110.204 272.986 110.08C277.375 107.509 280.488 104.977 282.801 102.102C285.657 98.5415 287.161 94.4479 287.037 90.5638C287.028 90.2972 287.237 90.0782 287.494 90.0687C287.504 90.0687 287.504 90.0687 287.513 90.0687C287.77 90.0687 287.98 90.2686 287.989 90.5257C288.123 94.6383 286.542 98.9509 283.544 102.692C281.716 104.968 279.412 107.024 276.413 109.052L289.617 105.158C289.874 105.082 290.131 105.225 290.208 105.482C290.284 105.739 290.141 105.996 289.884 106.072L273.367 110.946C273.31 110.956 273.262 110.965 273.224 110.965Z" fill="#3E6EFF"/>
<path d="M286.809 123.674C286.133 123.674 285.505 123.551 284.924 123.293C282.953 122.427 282.02 120.323 281.411 118.591C280.354 115.535 279.726 112.336 279.555 109.099C279.545 108.833 279.745 108.614 280.002 108.595C280.278 108.576 280.488 108.785 280.507 109.042C280.669 112.193 281.278 115.297 282.306 118.267C282.839 119.819 283.667 121.694 285.295 122.408C286.733 123.046 288.589 122.684 290.969 121.313C296.31 118.238 300.727 113.783 303.764 108.414C303.897 108.185 304.183 108.1 304.412 108.233C304.64 108.366 304.726 108.652 304.592 108.88C301.479 114.392 296.938 118.971 291.445 122.132C289.684 123.17 288.151 123.674 286.809 123.674Z" fill="#3E6EFF"/>
<path d="M306.915 94.5812C306.887 94.5812 306.868 94.5812 306.839 94.5717C306.582 94.5336 306.401 94.2861 306.439 94.029C306.715 92.2773 307.439 90.6114 308.534 89.2119C308.695 89.0025 308.991 88.9644 309.2 89.1357C309.41 89.2976 309.438 89.5927 309.276 89.8022C308.277 91.0683 307.62 92.582 307.372 94.1814C307.344 94.4194 307.144 94.5812 306.915 94.5812Z" fill="#3E6EFF"/>
<path d="M308.105 97.2087C308.048 97.2087 307.991 97.1992 307.924 97.1706C307.677 97.0754 307.563 96.7993 307.658 96.5518C308.124 95.3809 308.258 94.0481 308.029 92.8009C307.981 92.5439 308.153 92.2964 308.41 92.2488C308.667 92.2012 308.914 92.3725 308.962 92.6296C309.219 94.0481 309.067 95.5713 308.534 96.9041C308.467 97.0945 308.296 97.2087 308.105 97.2087Z" fill="#3E6EFF"/>
<path d="M295.824 127.644C293.787 127.644 291.874 127.33 290.132 126.711C289.932 126.635 289.798 126.435 289.817 126.226L290.179 122.123C290.198 121.856 290.446 121.656 290.693 121.694C290.96 121.713 291.15 121.951 291.122 122.208L290.788 125.94C293.083 126.692 295.663 126.892 298.49 126.521C300.794 126.226 303.183 125.578 306.22 124.445C306.554 123.027 308.162 114.783 309.238 109.232C309.6 106.557 309.41 103.739 308.686 101.121C308.619 100.864 308.762 100.607 309.019 100.541C309.276 100.474 309.533 100.617 309.609 100.874C310.362 103.625 310.561 106.567 310.181 109.394C307.191 124.807 307.077 124.979 307.01 125.083C306.953 125.159 306.877 125.226 306.782 125.264C303.574 126.483 301.051 127.168 298.614 127.482C297.662 127.578 296.729 127.644 295.824 127.644Z" fill="#3E6EFF"/>
<path d="M285.79 89.2785C283.382 89.2785 280.907 88.9834 278.66 87.9553C278.422 87.8505 278.317 87.5649 278.422 87.3269C278.536 87.0889 278.812 86.9842 279.05 87.0889C282.754 88.7835 287.085 88.3741 290.903 88.0124L305.354 86.632C305.621 86.6034 305.849 86.7938 305.878 87.0604C305.906 87.3174 305.706 87.5554 305.449 87.5745L291.007 88.9549C289.389 89.1072 287.609 89.2785 285.79 89.2785Z" fill="#3E6EFF"/>
<path d="M286.438 110.927C286.19 110.927 285.981 110.737 285.962 110.489C285.943 110.222 286.143 109.994 286.4 109.975C288.694 109.804 290.798 108.576 292.835 107.395C293.283 107.138 293.73 106.881 294.177 106.633C295.129 106.11 295.882 106.062 296.405 106.51C296.748 106.795 296.872 107.195 296.948 107.519C297.148 108.376 297.11 109.28 296.853 110.118C296.776 110.365 296.5 110.508 296.253 110.432C296.005 110.356 295.862 110.089 295.939 109.832C296.148 109.156 296.177 108.423 296.015 107.728C295.977 107.566 295.91 107.347 295.796 107.243C295.529 107.024 294.958 107.29 294.634 107.471C294.196 107.719 293.749 107.976 293.311 108.233C291.179 109.47 288.98 110.756 286.466 110.936C286.457 110.927 286.447 110.927 286.438 110.927Z" fill="#3E6EFF"/>
<path d="M293.492 131.814C292.645 131.814 291.797 131.766 290.941 131.652C289.141 131.424 286.828 130.729 285.99 128.72C285.886 128.472 286.009 128.196 286.247 128.101C286.485 128.006 286.771 128.111 286.866 128.358C287.561 130.024 289.789 130.548 291.055 130.71C297.31 131.509 303.536 128.977 307.686 127.006C307.924 126.892 308.21 126.997 308.324 127.235C308.438 127.473 308.334 127.758 308.096 127.873C304.402 129.624 299.08 131.814 293.492 131.814Z" fill="#3E6EFF"/>
<path d="M260.086 152.139C260.039 152.139 259.982 152.13 259.934 152.11C259.687 152.025 259.553 151.758 259.639 151.511L261.667 145.504C261.752 145.256 262.019 145.123 262.266 145.208C262.514 145.294 262.647 145.561 262.562 145.808L260.534 151.815C260.467 152.015 260.286 152.139 260.086 152.139Z" fill="#3E6EFF"/>
<path d="M318.13 141.629C318.073 141.629 318.016 141.62 317.958 141.6C317.711 141.505 317.587 141.229 317.682 140.991C318.987 137.545 322.147 134.813 325.746 134.013C326.003 133.956 326.26 134.118 326.317 134.375C326.374 134.632 326.212 134.889 325.955 134.946C322.661 135.67 319.767 138.173 318.577 141.324C318.501 141.505 318.32 141.629 318.13 141.629Z" fill="#3E6EFF"/>
<path d="M249.662 179.776C249.452 179.776 249.253 179.633 249.195 179.414C249.129 179.157 249.291 178.9 249.548 178.833L272.177 173.226C272.224 173.216 272.272 173.207 272.319 173.216C272.424 173.235 272.491 173.15 272.596 173.007C272.653 172.921 272.71 172.826 272.757 172.74C272.853 172.579 272.938 172.426 273.062 172.283C273.624 171.608 274.509 171.465 275.328 171.398C277.213 170.16 314.208 145.447 314.588 145.19C314.807 145.047 315.102 145.104 315.245 145.323C315.388 145.542 315.331 145.837 315.112 145.98C303.336 153.853 275.909 172.169 275.69 172.283C275.632 172.312 275.566 172.331 275.499 172.341C274.823 172.388 274.138 172.464 273.786 172.883C273.7 172.978 273.643 173.102 273.576 173.207C273.51 173.321 273.443 173.445 273.357 173.559C273.081 173.94 272.719 174.159 272.339 174.168L249.767 179.766C249.738 179.776 249.7 179.776 249.662 179.776Z" fill="#3E6EFF"/>
<path d="M227.671 202.938C226.328 202.814 225.11 201.919 224.044 200.263C222.14 197.312 221.397 193.637 221.997 190.172C222.359 188.068 223.215 186.468 224.482 185.554C224.529 185.526 224.577 185.497 224.624 185.478L242.532 180.299C242.779 180.223 243.046 180.375 243.122 180.623C243.198 180.88 243.046 181.137 242.798 181.213L224.977 186.364C223.691 187.335 223.158 189.048 222.939 190.324C222.378 193.551 223.082 196.988 224.853 199.739C225.462 200.691 226.452 201.843 227.718 201.976C228.204 201.891 231.612 201.101 233.716 200.596C249.491 196.997 273.243 191.514 274.671 190.99C274.738 190.943 274.823 190.914 274.9 190.914C278.917 190.676 282.858 189.458 286.324 187.411L315.921 167.876C316.14 167.733 316.435 167.79 316.578 168.009C316.721 168.228 316.664 168.523 316.445 168.666L286.828 188.21C283.22 190.352 279.126 191.609 274.966 191.857V191.828C273.567 192.323 266.95 193.989 233.944 201.51C229.651 202.519 228.223 202.862 227.69 202.862L227.671 202.938Z" fill="#3E6EFF"/>
<path d="M310.676 181.575C310.609 181.575 310.533 181.556 310.466 181.527C309.076 180.861 307.477 180.632 305.954 180.87C305.697 180.909 305.449 180.737 305.411 180.48C305.373 180.223 305.544 179.976 305.801 179.937C307.505 179.661 309.314 179.918 310.876 180.671C311.114 180.785 311.209 181.07 311.094 181.308C311.018 181.48 310.847 181.575 310.676 181.575Z" fill="#3E6EFF"/>
<path d="M235.829 205.661C235.63 205.661 235.439 205.527 235.373 205.327C235.296 205.08 235.43 204.813 235.687 204.728C261.057 196.807 285.038 193.999 306.972 196.398C309.143 196.636 311.428 196.94 313.522 197.835C315.902 198.854 317.644 200.52 318.435 202.509C318.53 202.757 318.406 203.033 318.168 203.128C317.92 203.223 317.644 203.1 317.549 202.862C316.873 201.129 315.264 199.615 313.151 198.711C311.18 197.864 308.972 197.569 306.877 197.34C285.086 194.96 261.229 197.749 235.982 205.632C235.925 205.651 235.877 205.661 235.829 205.661Z" fill="#3E6EFF"/>
<path d="M208.64 188.334C208.536 188.334 208.421 188.296 208.336 188.22C207.812 187.772 207.384 187.23 207.041 186.592C206.689 185.926 206.527 185.278 206.555 184.669C206.594 183.888 206.984 183.174 207.574 182.803C207.65 182.755 207.745 182.727 207.841 182.727C207.907 182.727 208.098 182.736 222.663 186.592C222.92 186.659 223.073 186.916 223.006 187.173C222.939 187.43 222.682 187.582 222.425 187.515C217.123 186.116 209.278 184.05 207.945 183.726C207.698 183.955 207.536 184.317 207.507 184.716C207.488 185.145 207.612 185.63 207.888 186.144C208.164 186.668 208.526 187.135 208.955 187.487C209.154 187.658 209.183 187.953 209.012 188.153C208.907 188.277 208.774 188.334 208.64 188.334Z" fill="#3E6EFF"/>
<path d="M198.016 208.355C197.959 208.355 197.892 208.345 197.835 208.317C196.683 207.86 196.198 206.803 196.54 205.489C196.616 205.194 196.721 204.899 196.826 204.613C196.997 204.128 197.169 203.661 197.188 203.195C197.188 203.1 197.188 203.004 197.188 202.909C197.178 202.624 197.178 202.31 197.292 201.986C197.464 201.5 197.845 201.177 198.178 200.891C198.482 200.634 198.739 200.406 198.778 200.139C198.797 200.015 198.758 199.863 198.73 199.692L198.692 199.492C198.521 198.473 198.825 197.397 199.501 196.626C199.568 196.54 199.644 196.464 199.72 196.388C199.92 196.188 200.101 195.988 200.148 195.798C200.187 195.646 200.148 195.446 200.12 195.236C200.101 195.141 200.091 195.036 200.072 194.941C199.91 193.561 200.767 192.161 202.071 191.676C202.624 191.266 204.28 190.362 209.307 187.649C210.478 186.744 212.163 186.459 213.638 186.954C213.886 187.039 214.019 187.306 213.943 187.554C213.857 187.801 213.591 187.934 213.343 187.858C212.182 187.468 210.801 187.696 209.83 188.448C207.222 189.857 203.1 192.114 202.605 192.447C202.557 192.494 202.49 192.542 202.424 192.561C201.529 192.885 200.92 193.875 201.024 194.817C201.034 194.903 201.043 194.979 201.062 195.065C201.11 195.35 201.167 195.674 201.081 196.017C200.977 196.464 200.672 196.769 200.415 197.045C200.348 197.112 200.282 197.178 200.225 197.254C199.739 197.816 199.511 198.616 199.634 199.339L199.663 199.511C199.71 199.739 199.758 199.987 199.72 200.263C199.634 200.882 199.187 201.262 198.797 201.605C198.53 201.834 198.283 202.052 198.197 202.3C198.14 202.462 198.14 202.671 198.149 202.89C198.149 203.004 198.149 203.119 198.149 203.233C198.13 203.842 197.93 204.394 197.74 204.937C197.645 205.204 197.549 205.47 197.483 205.737C197.207 206.812 197.721 207.212 198.054 207.374C200.272 206.584 202.576 206.013 204.908 205.68C205.737 205.556 206.651 205.48 207.869 205.927C207.917 205.946 207.964 205.965 208.002 206.003C209.316 207.05 211.22 207.45 213.219 207.108C215.219 206.765 217.065 205.746 218.455 204.899C220.359 203.738 222.187 202.395 223.872 200.929C224.072 200.758 224.367 200.777 224.548 200.977C224.72 201.177 224.701 201.472 224.501 201.653C222.768 203.157 220.902 204.528 218.95 205.718C217.494 206.613 215.542 207.679 213.381 208.05C211.144 208.431 208.992 207.983 207.469 206.803C206.498 206.46 205.803 206.527 205.051 206.632C202.719 206.974 200.415 207.546 198.206 208.345C198.121 208.345 198.064 208.355 198.016 208.355Z" fill="#3E6EFF"/>
<path d="M208.469 203.699C208.431 203.699 208.393 203.699 208.355 203.69C208.098 203.623 207.945 203.366 208.002 203.119L211.392 189.229C211.449 188.972 211.706 188.82 211.963 188.877C212.22 188.943 212.372 189.2 212.315 189.448L208.926 203.338C208.878 203.547 208.688 203.699 208.469 203.699Z" fill="#3E6EFF"/>
<path d="M199.196 203.975C198.987 203.975 198.797 203.842 198.739 203.633C198.663 203.376 198.816 203.119 199.063 203.042L204.899 201.376C205.146 201.31 205.413 201.453 205.489 201.7C205.565 201.957 205.413 202.214 205.165 202.29L199.33 203.956C199.282 203.966 199.234 203.975 199.196 203.975Z" fill="#3E6EFF"/>
<path d="M200.691 200.253C200.491 200.253 200.31 200.129 200.244 199.939C200.158 199.691 200.282 199.415 200.529 199.33L206.917 197.054C207.165 196.969 207.441 197.092 207.526 197.34C207.612 197.588 207.488 197.864 207.241 197.949L200.853 200.225C200.796 200.244 200.748 200.253 200.691 200.253Z" fill="#3E6EFF"/>
<path d="M202.252 195.969C202.062 195.969 201.881 195.855 201.805 195.664C201.71 195.417 201.833 195.141 202.081 195.055L208.079 192.78C208.326 192.685 208.602 192.808 208.688 193.056C208.783 193.303 208.659 193.58 208.412 193.665L202.414 195.941C202.367 195.96 202.309 195.969 202.252 195.969Z" fill="#3E6EFF"/>
<path d="M234.125 132.157C233.592 132.157 233.059 132.052 232.612 131.7C232.574 131.671 232.545 131.643 232.516 131.604C230.879 129.377 230.565 126.473 231.669 123.846C232.774 121.218 235.02 119.39 237.181 117.629C237.914 117.029 238.676 116.411 239.371 115.773C240.399 114.83 241.351 113.793 242.189 112.679C242.712 111.993 243.198 111.26 243.683 110.556C244.436 109.442 245.216 108.28 246.14 107.243C246.454 106.891 246.835 106.491 247.368 106.281C248.015 106.034 248.748 106.177 249.148 106.634C249.481 107.024 249.538 107.509 249.538 107.985C249.557 109.509 249.338 111.022 248.891 112.479C248.815 112.726 248.548 112.869 248.291 112.793C248.044 112.717 247.901 112.45 247.977 112.193C248.396 110.832 248.605 109.423 248.586 107.995C248.586 107.7 248.558 107.414 248.424 107.252C248.291 107.09 247.986 107.052 247.71 107.167C247.377 107.3 247.092 107.595 246.844 107.871C245.968 108.861 245.197 109.985 244.464 111.079C243.979 111.793 243.474 112.536 242.941 113.24C242.065 114.402 241.075 115.478 240.009 116.458C239.295 117.115 238.524 117.743 237.781 118.343C235.61 120.114 233.554 121.78 232.545 124.198C231.574 126.492 231.831 129.015 233.24 130.967C233.697 131.281 234.411 131.195 235.049 131.09C236.915 130.786 238.876 130.424 240.628 129.567C242.512 128.653 243.855 127.263 244.426 125.674C244.512 125.426 244.788 125.293 245.035 125.388C245.283 125.474 245.407 125.75 245.321 125.997C244.664 127.825 243.15 129.405 241.037 130.434C239.171 131.347 237.124 131.728 235.192 132.042C234.858 132.1 234.487 132.157 234.125 132.157Z" fill="#3E6EFF"/>
<path d="M260.22 117.105C260.124 117.105 260.02 117.077 259.934 117.01C259.725 116.848 259.677 116.553 259.839 116.344C260.096 116.001 260.296 115.716 260.362 115.411C260.42 115.154 260.334 114.887 260.182 114.792C260.115 114.754 260.058 114.697 260.02 114.64C259.563 114.278 256.783 112.593 254.298 111.127C253.841 110.794 253.232 110.708 252.585 110.86C251.947 111.003 251.337 111.346 250.757 111.679L243.503 115.763C243.274 115.887 242.979 115.811 242.855 115.582C242.722 115.354 242.808 115.059 243.036 114.935L250.29 110.851C250.938 110.489 251.604 110.108 252.375 109.937C253.289 109.727 254.184 109.87 254.822 110.337C258.973 112.774 260.286 113.612 260.705 113.992C261.191 114.307 261.438 114.963 261.295 115.611C261.181 116.144 260.848 116.591 260.6 116.915C260.505 117.039 260.362 117.105 260.22 117.105Z" fill="#3E6EFF"/>
<path d="M258.049 120.952C257.821 120.952 257.611 120.78 257.583 120.542C257.545 120.285 257.725 120.038 257.982 120C259.058 119.847 260.172 119.628 260.829 118.895C260.886 118.838 260.896 118.81 260.896 118.8C260.896 118.8 260.858 118.733 260.781 118.648C260.734 118.6 260.686 118.562 260.639 118.524C260.515 118.419 260.372 118.305 260.258 118.143C259.687 117.943 258.649 117.467 256.678 116.582L253.108 114.963L246.482 117.363C246.235 117.448 245.959 117.324 245.873 117.077C245.787 116.829 245.911 116.553 246.159 116.468L252.965 114.011C253.08 113.973 253.213 113.973 253.327 114.021C255.326 114.925 260.515 117.277 260.791 117.401C260.877 117.439 260.962 117.496 261.01 117.581C261.057 117.648 261.143 117.724 261.238 117.81C261.305 117.867 261.372 117.924 261.438 117.981C261.771 118.305 261.905 118.686 261.819 119.048C261.771 119.257 261.638 119.419 261.533 119.543C260.658 120.523 259.306 120.79 258.106 120.961C258.087 120.952 258.068 120.952 258.049 120.952Z" fill="#3E6EFF"/>
<path d="M256.326 126.035C255.993 126.035 255.669 125.988 255.345 125.883C255.098 125.807 254.955 125.54 255.031 125.283C255.107 125.036 255.383 124.893 255.631 124.969C256.402 125.217 257.316 125.017 257.935 124.493C257.402 123.922 256.155 122.532 253.127 119.124L244.483 120.685C244.226 120.733 243.979 120.561 243.931 120.304C243.883 120.047 244.055 119.8 244.312 119.752L253.222 118.143C253.394 118.115 253.556 118.172 253.66 118.296C255.641 120.514 258.649 123.884 258.906 124.15C258.982 124.217 259.039 124.312 259.058 124.426C259.087 124.569 259.049 124.712 258.953 124.817C258.325 125.597 257.326 126.035 256.326 126.035Z" fill="#3E6EFF"/>
<path d="M253.66 128.606C253.632 128.606 253.594 128.606 253.565 128.606C252.699 128.587 251.88 128.292 251.147 128.044C251.042 128.006 250.947 127.93 250.89 127.835L249.595 125.616L244.921 126.216C244.664 126.245 244.426 126.064 244.388 125.807C244.35 125.55 244.54 125.312 244.797 125.274L249.786 124.636C249.976 124.617 250.157 124.703 250.262 124.864L251.623 127.197C252.261 127.416 252.927 127.635 253.584 127.654C254.146 127.673 254.66 127.52 255.022 127.244C254.46 126.664 253.384 125.455 251.214 122.989L243.493 123.408C243.198 123.436 243.008 123.217 242.988 122.96C242.979 122.694 243.179 122.475 243.436 122.456L251.385 122.027C251.537 122.018 251.671 122.075 251.766 122.189C253.327 123.969 255.707 126.654 255.964 126.921C255.993 126.949 256.021 126.978 256.04 127.006C256.164 127.178 256.155 127.406 256.021 127.578C255.526 128.225 254.641 128.606 253.66 128.606Z" fill="#3E6EFF"/>
<path d="M296.062 209.764C296.015 209.764 295.967 209.754 295.92 209.745C295.672 209.668 295.529 209.402 295.605 209.145C296.995 204.689 298.995 200.444 301.546 196.531C301.689 196.312 301.984 196.255 302.203 196.388C302.422 196.531 302.488 196.826 302.346 197.045C299.842 200.881 297.881 205.042 296.519 209.421C296.453 209.63 296.262 209.764 296.062 209.764Z" fill="#3E6EFF"/>
<path d="M295.463 219.436C295.386 219.436 295.301 219.417 295.234 219.379C284.105 213.21 271.101 211.115 259.848 209.868C250.9 208.878 241.332 208.231 232.079 210.202C231.821 210.259 231.564 210.087 231.517 209.83C231.469 209.573 231.631 209.316 231.888 209.269C241.275 207.279 250.928 207.926 259.963 208.926C271.12 210.154 283.982 212.229 295.129 218.236C295.406 216.827 295.682 215.571 296.196 214.419C296.262 214.276 296.319 214.143 296.386 214C296.653 213.448 296.9 212.915 296.9 212.382C296.9 211.639 296.424 210.868 295.453 210.021C292.511 207.488 288.589 206.222 284.8 205.232C274.595 202.576 264.066 201.291 253.518 201.415C253.518 201.415 253.518 201.415 253.508 201.415C253.251 201.415 253.032 201.205 253.032 200.948C253.032 200.682 253.241 200.472 253.499 200.463C264.123 200.339 274.747 201.634 285.029 204.309C288.932 205.327 292.968 206.632 296.062 209.297C297.262 210.335 297.852 211.344 297.843 212.382C297.843 213.124 297.529 213.772 297.233 214.4C297.167 214.533 297.11 214.666 297.053 214.8C296.51 216.028 296.243 217.427 295.929 219.046C295.901 219.198 295.805 219.322 295.663 219.388C295.596 219.417 295.529 219.436 295.463 219.436Z" fill="#3E6EFF"/>
<path d="M295.11 214.495C295.063 214.495 295.015 214.486 294.958 214.476C294.177 214.219 293.663 213.629 293.149 213.067C292.702 212.563 292.283 212.087 291.731 211.925C291.179 211.753 290.55 211.925 289.884 212.115C289.16 212.315 288.418 212.515 287.637 212.344C286.504 212.087 285.8 211.125 285.181 210.287C285.067 210.135 284.953 209.973 284.838 209.83C284.239 209.059 283.239 208.06 281.878 207.698C280.44 207.317 278.965 207.717 277.394 208.136C275.994 208.517 274.547 208.897 273.062 208.726C271.472 208.536 270.101 207.717 268.769 206.927C267.56 206.213 266.427 205.527 265.142 205.289C263.533 204.985 261.924 205.423 260.229 205.87C259.001 206.203 257.735 206.536 256.44 206.593C254.412 206.679 252.47 206.06 250.595 205.461L249.672 205.165C247.672 204.547 245.349 204.014 243.293 204.709C243.046 204.794 242.779 204.661 242.693 204.413C242.608 204.166 242.741 203.89 242.988 203.814C245.302 203.033 247.806 203.604 249.948 204.261L250.881 204.556C252.68 205.127 254.546 205.727 256.402 205.651C257.592 205.603 258.811 205.28 259.982 204.966C261.705 204.499 263.495 204.023 265.313 204.366C266.76 204.632 268.026 205.394 269.254 206.117C270.558 206.889 271.786 207.622 273.176 207.793C274.471 207.955 275.775 207.603 277.146 207.231C278.765 206.793 280.44 206.346 282.116 206.793C283.734 207.222 284.896 208.374 285.59 209.259C285.714 209.411 285.828 209.573 285.952 209.735C286.523 210.516 287.066 211.249 287.856 211.43C288.399 211.553 288.999 211.392 289.636 211.22C290.398 211.011 291.188 210.792 292.016 211.039C292.816 211.287 293.349 211.887 293.863 212.467C294.301 212.962 294.72 213.429 295.253 213.61C295.501 213.695 295.644 213.962 295.558 214.209C295.501 214.362 295.31 214.495 295.11 214.495Z" fill="#3E6EFF"/>
<path d="M272.31 258.611C272.234 258.611 272.158 258.592 272.082 258.554C271.853 258.43 271.758 258.144 271.882 257.906C273.367 255.107 274.462 252.032 275.518 249.053C277.089 244.635 278.707 240.066 281.659 236.305L281.801 236.115C282.192 235.629 282.554 235.173 282.744 234.649C282.915 234.173 282.925 233.516 282.544 233.154C282.477 233.088 282.401 233.04 282.335 232.983C282.154 232.84 281.944 232.688 281.792 232.44C281.421 231.812 281.697 231.088 281.849 230.698C283.372 226.795 285.01 222.882 286.714 219.065C286.819 218.827 287.104 218.722 287.342 218.827C287.58 218.931 287.694 219.217 287.58 219.455C285.876 223.263 284.248 227.157 282.734 231.05C282.601 231.403 282.487 231.755 282.611 231.955C282.658 232.04 282.782 232.136 282.906 232.221C283.011 232.297 283.115 232.383 283.21 232.469C283.82 233.05 283.991 234.03 283.648 234.973C283.41 235.649 282.972 236.191 282.563 236.715L282.42 236.896C279.574 240.532 277.974 245.026 276.432 249.376C275.366 252.385 274.262 255.498 272.738 258.354C272.643 258.516 272.481 258.611 272.31 258.611Z" fill="#3E6EFF"/>
<path d="M281.497 226.624C281.411 226.624 281.326 226.605 281.249 226.557C280.421 226.062 279.46 225.881 278.441 225.681C278.06 225.605 277.67 225.529 277.299 225.434C272.139 224.177 268.045 219.427 267.56 214.143C267.531 213.876 267.731 213.648 267.988 213.629C268.245 213.6 268.483 213.8 268.502 214.057C268.95 218.951 272.739 223.349 277.518 224.51C277.879 224.596 278.251 224.672 278.622 224.748C279.679 224.958 280.764 225.167 281.725 225.748C281.954 225.881 282.03 226.176 281.887 226.405C281.821 226.538 281.659 226.624 281.497 226.624Z" fill="#3E6EFF"/>
<path d="M259.477 243.131C259.439 243.131 259.401 243.131 259.353 243.112C259.096 243.046 258.944 242.789 259.011 242.531C259.648 240.094 260.039 237.619 258.611 236.048C258.477 235.896 258.325 235.763 258.182 235.629C257.887 235.353 257.573 235.068 257.345 234.687C256.935 234.021 256.821 233.164 257.002 232.145C257.164 231.26 257.487 230.403 257.802 229.575C258.344 228.166 258.849 226.843 258.496 225.538C257.954 223.568 255.602 222.654 254.622 222.349C254.032 222.168 253.422 222.025 252.813 221.883C251.556 221.587 250.262 221.283 249.081 220.635C246.635 219.293 245.111 216.437 245.149 213.619C243.312 215.799 241.084 217.665 238.609 219.074C238.276 219.265 237.933 219.455 237.591 219.636C236.677 220.131 235.81 220.597 235.03 221.216C234.344 221.759 233.183 222.892 233.04 224.405C232.964 225.196 233.173 225.995 233.392 226.852C233.678 227.966 233.963 229.108 233.621 230.27C233.24 231.555 232.221 232.402 231.241 233.221C231.079 233.354 230.917 233.487 230.765 233.621C229.327 234.868 228.099 236.42 227.223 238.105C227.1 238.333 226.814 238.428 226.585 238.305C226.347 238.181 226.262 237.895 226.386 237.667C227.318 235.877 228.623 234.23 230.155 232.907C230.317 232.764 230.479 232.631 230.641 232.497C231.555 231.736 232.421 231.012 232.726 230.003C232.992 229.089 232.745 228.118 232.488 227.09C232.259 226.195 232.021 225.272 232.117 224.32C232.25 222.939 233.078 221.568 234.468 220.474C235.306 219.807 236.258 219.293 237.162 218.808C237.495 218.627 237.829 218.446 238.162 218.255C241.027 216.618 243.569 214.333 245.502 211.658C245.635 211.468 245.892 211.411 246.092 211.506C246.301 211.601 246.406 211.839 246.339 212.058C245.53 214.971 246.939 218.379 249.548 219.807C250.604 220.388 251.785 220.664 253.032 220.959C253.651 221.102 254.289 221.254 254.907 221.445C256.316 221.873 258.782 222.949 259.42 225.291C259.858 226.9 259.268 228.432 258.696 229.917C258.392 230.708 258.087 231.517 257.944 232.307C257.802 233.088 257.878 233.725 258.163 234.182C258.325 234.449 258.573 234.677 258.839 234.925C259.011 235.077 259.172 235.239 259.325 235.411C261.057 237.324 260.61 240.209 259.944 242.769C259.886 242.988 259.686 243.131 259.477 243.131Z" fill="#3E6EFF"/>
<path d="M216.018 272.063C215.856 272.063 215.695 271.977 215.609 271.825C215.476 271.596 215.552 271.31 215.78 271.177C218.103 269.816 221.197 268.131 224.529 267.207C227.966 266.246 231.307 266.198 234.182 267.055C234.43 267.131 234.582 267.398 234.506 267.645C234.43 267.893 234.163 268.036 233.916 267.969C231.212 267.16 228.061 267.217 224.786 268.131C221.578 269.026 218.674 270.596 216.256 272.015C216.18 272.034 216.104 272.063 216.018 272.063Z" fill="#3E6EFF"/>
<path d="M274.49 275.137C274.347 275.137 274.205 275.071 274.109 274.947C271.587 271.567 267.807 269.949 265.075 269.187C261.457 268.178 257.668 268.064 254.079 268.064C245.74 268.083 239.561 268.93 234.059 270.806C233.811 270.891 233.535 270.758 233.459 270.511C233.383 270.263 233.507 269.987 233.754 269.911C239.361 268.007 245.635 267.15 254.079 267.122C257.725 267.122 261.6 267.245 265.332 268.283C268.197 269.083 272.186 270.787 274.871 274.385C275.033 274.595 274.985 274.89 274.776 275.052C274.69 275.109 274.595 275.137 274.49 275.137Z" fill="#3E6EFF"/>
<path d="M195.15 383.894C195.103 383.894 195.046 383.884 194.998 383.865C194.751 383.78 194.617 383.513 194.703 383.266L246.806 230.289C246.892 230.041 247.158 229.908 247.406 229.994C247.653 230.079 247.787 230.346 247.701 230.593L195.598 383.57C195.531 383.77 195.35 383.894 195.15 383.894Z" fill="#3E6EFF"/>
<path d="M222.939 297.805C220.997 297.805 218.969 296.91 217.484 295.368C216.056 293.882 215.057 291.798 214.609 289.341C214.19 287.085 214.267 284.762 214.362 282.754C214.543 279.136 214.885 275.48 215.399 271.882C215.438 271.625 215.676 271.444 215.933 271.482C216.19 271.52 216.371 271.758 216.342 272.024C215.837 275.585 215.495 279.212 215.314 282.811C215.219 284.762 215.152 287.019 215.542 289.18C215.961 291.445 216.866 293.368 218.17 294.72C219.655 296.262 221.74 297.072 223.606 296.824C223.863 296.786 224.101 296.976 224.139 297.233C224.177 297.491 223.987 297.738 223.729 297.767C223.472 297.786 223.206 297.805 222.939 297.805Z" fill="#3E6EFF"/>
<path d="M203.871 393.043C203.833 393.043 203.795 393.043 203.747 393.024C203.547 392.967 203.404 392.795 203.395 392.586C203.242 389.358 202.985 385.779 202.795 384.97C199.939 384.122 196.816 384.037 193.837 384.741C193.58 384.808 193.323 384.646 193.266 384.389C193.208 384.132 193.361 383.875 193.618 383.818C196.807 383.056 200.148 383.17 203.29 384.142C203.623 384.313 203.928 384.465 204.271 391.044L208.402 384.484C208.488 384.341 208.621 384.265 208.812 384.265C210.725 384.313 212.658 383.704 214.219 382.58C215.752 381.476 216.904 379.877 217.484 378.077C217.113 375.688 217.494 373.184 218.56 371.023C218.57 371.004 218.579 370.994 218.579 370.985C219.465 369.328 266.779 271.558 267.255 270.568C267.369 270.33 267.655 270.235 267.893 270.349C268.131 270.463 268.226 270.749 268.112 270.987C268.112 270.987 255.955 296.11 243.788 321.233C237.705 333.79 231.622 346.357 227.052 355.772C224.767 360.484 222.863 364.407 221.521 367.148C220.245 369.766 219.674 370.937 219.35 371.432L219.407 371.461C218.408 373.479 218.065 375.821 218.436 378.058C218.446 378.134 218.446 378.201 218.417 378.277C217.789 380.314 216.494 382.123 214.771 383.38C213.115 384.579 211.096 385.236 209.059 385.246L204.261 392.852C204.185 392.957 204.033 393.043 203.871 393.043Z" fill="#3E6EFF"/>
<path d="M258.544 291.426C258.354 291.426 258.163 291.302 258.097 291.112C258.011 290.865 258.135 290.588 258.382 290.503C274.423 284.677 304.849 273.624 305.782 273.243C305.82 273.224 305.859 273.214 305.897 273.205C308.067 272.786 310.571 272.443 312.694 273.529C312.932 273.652 313.018 273.938 312.903 274.166C312.78 274.404 312.494 274.49 312.265 274.376C310.409 273.424 308.096 273.757 306.077 274.138L306.068 274.062C305.363 274.424 303.517 275.099 298.747 276.832C294.301 278.45 288.37 280.612 282.439 282.773C270.577 287.085 258.715 291.398 258.715 291.398C258.658 291.417 258.601 291.426 258.544 291.426Z" fill="#3E6EFF"/>
<path d="M306.306 272.9C306.249 272.9 306.192 272.891 306.135 272.872C305.887 272.776 305.763 272.5 305.858 272.262C306.763 269.882 307.182 267.264 307.068 264.713C307.001 263.247 306.763 262.209 306.296 261.352C305.725 260.315 304.773 259.61 303.793 259.515V259.506C302.603 259.839 297.976 260.715 278.926 264.094C278.669 264.142 278.422 263.97 278.374 263.704C278.327 263.447 278.498 263.199 278.765 263.152C288.313 261.457 302.717 258.868 303.64 258.601C303.717 258.563 303.793 258.554 303.888 258.563C305.173 258.687 306.42 259.582 307.134 260.896C307.829 262.181 307.972 263.666 308.02 264.665C308.143 267.35 307.705 270.092 306.744 272.596C306.677 272.786 306.496 272.9 306.306 272.9Z" fill="#3E6EFF"/>
<path d="M301.403 259.42C301.384 259.42 301.356 259.42 301.337 259.42C301.08 259.382 300.899 259.144 300.937 258.877C301.022 258.287 301.118 257.611 301.441 257.002C301.841 256.259 302.527 255.793 303.241 255.774C303.574 255.764 303.869 255.85 304.135 255.917C305.43 256.278 306.887 256.678 308.048 257.621C308.248 257.782 308.286 258.087 308.115 258.287C307.953 258.487 307.648 258.525 307.448 258.354C306.449 257.545 305.087 257.164 303.888 256.831C303.669 256.773 303.469 256.716 303.279 256.716C302.907 256.726 302.527 257.011 302.289 257.449C302.041 257.906 301.965 258.468 301.889 259.011C301.841 259.249 301.641 259.42 301.403 259.42Z" fill="#3E6EFF"/>
<path d="M320.672 289.598C319.225 289.598 317.816 289.008 316.911 287.98C316.197 287.171 315.816 286.181 315.445 285.219L315.302 284.838C313.655 280.612 310.961 276.813 307.505 273.862C307.306 273.69 307.286 273.386 307.458 273.186C307.629 272.986 307.934 272.967 308.134 273.138C311.704 276.194 314.493 280.116 316.197 284.486L316.35 284.876C316.702 285.8 317.035 286.676 317.635 287.352C318.511 288.342 319.977 288.827 321.376 288.589C322.652 288.38 323.87 287.609 324.737 286.476C324.508 278.669 322.995 270.815 320.234 263.123C319.329 260.591 318.149 257.668 316.302 255.155C314.436 252.623 312.037 250.823 309.533 250.071C307.791 250.519 306.849 251.518 306.096 252.537C305.839 252.889 305.592 253.251 305.344 253.603C304.783 254.422 304.212 255.269 303.469 255.983C303.279 256.164 302.983 256.164 302.793 255.974C302.612 255.783 302.612 255.488 302.803 255.298C303.469 254.65 303.993 253.879 304.554 253.061C304.811 252.689 305.059 252.318 305.325 251.956C306.163 250.833 307.306 249.605 309.428 249.1C309.505 249.081 309.59 249.081 309.666 249.11C313.189 250.119 315.636 252.642 317.064 254.574C318.987 257.183 320.196 260.191 321.129 262.781C323.937 270.625 325.47 278.641 325.689 286.59C325.689 286.695 325.66 286.8 325.603 286.885C324.584 288.294 323.109 289.246 321.528 289.503C321.233 289.579 320.957 289.598 320.672 289.598Z" fill="#3E6EFF"/>
<path d="M322.404 286.704C322.157 286.704 321.947 286.514 321.928 286.266C321.49 280.221 320.434 274.204 318.787 268.369C318.035 265.684 316.93 262.219 315.093 259.182C313.237 256.107 310.809 253.822 308.096 252.546C307.858 252.432 307.753 252.156 307.867 251.909C307.982 251.661 308.267 251.566 308.505 251.68C311.39 253.032 313.951 255.45 315.912 258.677C317.816 261.809 318.939 265.36 319.71 268.102C321.367 273.995 322.433 280.078 322.88 286.19C322.899 286.457 322.699 286.676 322.442 286.704C322.433 286.704 322.414 286.704 322.404 286.704Z" fill="#3E6EFF"/>
<path d="M308.343 272.986C308.258 272.986 308.162 272.957 308.086 272.91C307.867 272.767 307.801 272.472 307.943 272.253C308.848 270.853 309.419 269.235 309.609 267.579C309.628 267.417 309.733 267.274 309.885 267.198C310.038 267.131 310.209 267.141 310.352 267.236L312.427 268.607C312.104 268.007 311.732 267.436 311.304 266.893C311.104 266.636 310.914 266.398 310.809 266.074C310.704 265.741 310.723 265.418 310.733 265.132C310.837 262.98 310.028 260.886 308.553 259.429C308.362 259.249 308.362 258.944 308.553 258.754C308.734 258.563 309.038 258.563 309.229 258.754C310.885 260.391 311.809 262.761 311.694 265.094C311.675 265.408 311.666 265.617 311.713 265.779C311.761 265.932 311.894 266.093 312.018 266.265C312.865 267.35 313.513 268.502 313.989 269.749C314.065 269.94 314.008 270.159 313.846 270.292C313.684 270.425 313.455 270.435 313.284 270.32L310.438 268.445C310.162 269.978 309.581 271.463 308.734 272.767C308.648 272.91 308.496 272.986 308.343 272.986Z" fill="#3E6EFF"/>
<path d="M162.24 426.268C160.907 426.268 159.584 426.239 158.251 426.191C158.089 426.182 157.937 426.096 157.861 425.953C156.109 422.935 156.337 419.442 158.441 416.833C159.498 415.519 160.897 414.567 162.24 413.654C173.835 405.723 185.478 396.727 192.39 384.598C192.523 384.37 192.809 384.294 193.037 384.418C193.265 384.551 193.342 384.836 193.218 385.065C186.202 397.365 174.463 406.437 162.811 414.415C161.478 415.329 160.145 416.243 159.174 417.442C157.375 419.67 157.147 422.64 158.546 425.258C162.925 425.42 167.362 425.296 171.722 424.868C176.406 424.411 182.422 423.497 187.42 420.422C189.953 418.861 192.19 416.776 194.36 414.758C196.255 412.997 198.206 411.169 200.377 409.674C204.88 406.58 210.192 404.99 214.314 403.953C216.133 403.496 217.913 403.048 219.331 401.42C220.635 394.185 222.092 386.007 220.15 378.41C219.845 377.201 219.398 375.84 218.465 374.879C218.284 374.688 218.284 374.393 218.474 374.203C218.665 374.022 218.96 374.022 219.15 374.212C220.245 375.335 220.731 376.84 221.073 378.172C223.082 386.007 221.578 394.347 220.255 401.706C220.236 401.782 220.207 401.868 220.15 401.925C218.532 403.867 216.466 404.381 214.647 404.838C210.506 405.876 205.299 407.437 200.92 410.445C198.806 411.902 196.874 413.701 195.008 415.443C192.809 417.49 190.543 419.613 187.925 421.222C182.755 424.392 176.605 425.335 171.817 425.801C168.647 426.115 165.439 426.268 162.24 426.268Z" fill="#3E6EFF"/>
<path d="M159.717 418.709C159.441 418.709 159.212 418.509 159.212 418.233C159.212 417.966 159.422 417.757 159.688 417.757C159.688 417.747 159.707 417.757 159.717 417.757C169.694 417.757 179.795 414.748 188.144 409.284C189.572 408.351 190.99 407.323 192.361 406.323C196.026 403.667 199.806 400.925 204.223 399.612C205.727 399.164 207.288 398.898 208.793 398.631C209.811 398.45 210.868 398.269 211.887 398.031C214.895 397.336 217.056 396.241 218.484 394.69C218.665 394.499 218.96 394.48 219.16 394.661C219.35 394.842 219.369 395.137 219.188 395.337C217.618 397.041 215.304 398.222 212.106 398.964C211.058 399.202 209.992 399.393 208.964 399.573C207.479 399.831 205.956 400.097 204.499 400.525C200.244 401.792 196.521 404.486 192.923 407.094C191.542 408.094 190.114 409.132 188.667 410.074C180.156 415.653 169.875 418.709 159.717 418.709Z" fill="#3E6EFF"/>
<path d="M222.387 362.036C222.33 362.036 222.273 362.027 222.216 362.007C216.475 359.77 210.03 359.342 204.042 360.798C203.785 360.856 203.528 360.703 203.471 360.446C203.404 360.189 203.566 359.932 203.823 359.875C209.992 358.371 216.656 358.809 222.568 361.122C222.816 361.217 222.93 361.493 222.835 361.741C222.758 361.922 222.578 362.036 222.387 362.036Z" fill="#3E6EFF"/>
<path d="M225.929 355.277C225.852 355.277 225.776 355.258 225.7 355.22C219.988 352.145 213.115 351.336 206.851 353.011C206.603 353.078 206.336 352.925 206.27 352.678C206.203 352.421 206.356 352.164 206.603 352.097C213.105 350.355 220.226 351.193 226.148 354.382C226.376 354.506 226.462 354.791 226.338 355.029C226.262 355.182 226.1 355.277 225.929 355.277Z" fill="#3E6EFF"/>
<path d="M287.228 279.859C287.161 279.859 287.095 279.85 287.028 279.821C286.79 279.717 286.685 279.431 286.79 279.193C288.332 275.756 289.056 271.958 288.894 268.197C288.856 267.284 288.761 266.227 288.361 265.284C287.961 264.342 287.294 263.637 286.514 263.342C286.266 263.247 286.143 262.981 286.238 262.733C286.333 262.485 286.609 262.362 286.847 262.457C287.866 262.838 288.742 263.742 289.237 264.923C289.694 266.008 289.798 267.169 289.846 268.159C290.017 272.063 289.265 276.013 287.656 279.583C287.58 279.755 287.409 279.859 287.228 279.859Z" fill="#3E6EFF"/>
<path d="M293.14 277.175C293.092 277.175 293.045 277.165 292.988 277.156C292.74 277.07 292.597 276.804 292.683 276.556C293.578 273.833 294.016 270.996 294.006 268.131C293.987 265.475 293.416 263.628 292.245 262.485C292.055 262.305 292.055 262 292.235 261.81C292.416 261.619 292.721 261.619 292.911 261.8C294.273 263.133 294.939 265.199 294.958 268.121C294.977 271.092 294.511 274.033 293.587 276.851C293.53 277.051 293.34 277.175 293.14 277.175Z" fill="#3E6EFF"/>
<path d="M262.562 283.563C262.352 283.563 262.162 283.429 262.105 283.22C262.028 282.963 262.171 282.706 262.428 282.63C265.465 281.735 268.416 280.516 271.206 279.012C272.377 278.384 273.681 277.603 274.376 276.385C274.852 275.547 275.023 274.528 275.185 273.538L275.242 273.195C275.794 269.911 276.784 266.703 278.184 263.675C278.298 263.437 278.574 263.333 278.812 263.447C279.05 263.561 279.155 263.837 279.041 264.075C277.679 267.026 276.708 270.149 276.175 273.348L276.118 273.69C275.937 274.766 275.756 275.87 275.195 276.861C274.414 278.231 273.024 279.107 271.653 279.85C268.816 281.392 265.798 282.63 262.695 283.544C262.657 283.563 262.609 283.563 262.562 283.563Z" fill="#3E6EFF"/>
<path d="M250.662 360.922H425.515C425.515 360.922 425.906 358.238 426.03 357.885C427.324 349.622 427.781 341.235 427.41 332.876C422.955 336.732 417.471 339.388 411.683 340.502C410.902 340.654 410.093 340.768 409.341 340.521C408.589 340.273 407.932 339.559 408.027 338.769C408.084 338.303 408.37 337.912 408.665 337.551C413.101 332.029 419.927 328.992 426.563 326.631C425.715 321.709 424.392 316.864 422.612 312.189C419.861 313.96 416.5 314.75 413.254 314.407C412.464 314.322 411.435 313.817 411.673 313.056C411.759 312.799 411.969 312.618 412.187 312.446C414.739 310.409 417.766 308.981 420.965 308.315C419.689 306.192 418.509 304.012 417.414 301.784C415.11 305.392 411.521 308.153 407.447 309.467C406.447 309.79 405.152 309.943 404.524 309.095C403.896 308.248 404.429 307.058 405.009 306.173C407.304 302.698 410.369 299.728 414.387 297.129C408.97 291.664 402.534 287.218 395.508 284.096C395.337 287.133 394.176 290.027 392.929 292.807C391.596 295.786 390.158 298.719 388.616 301.594C388.311 302.155 387.988 302.736 387.474 303.117C386.959 303.498 386.198 303.631 385.684 303.25C385.341 302.993 385.17 302.574 385.055 302.165C384.513 300.242 384.865 298.185 385.303 296.243C386.331 291.683 387.854 287.228 389.863 282.706C384.38 282.154 378.829 282.268 373.374 283.039C373.489 285.076 372.984 287.142 371.937 288.894C371.585 289.494 371.004 290.122 370.319 289.979C369.966 289.903 369.69 289.636 369.462 289.36C368.357 288.028 367.872 286.219 368.148 284.515C363.312 285.971 358.666 288.056 354.363 290.684C356.876 295.244 358.285 300.423 358.666 305.563C358.114 305.792 357.562 306.03 357.01 306.258C353.678 302.803 351.155 298.557 349.727 293.968C348.28 294.673 346.966 295.663 346.043 297.176C350.545 301.489 353.858 307.029 355.515 313.037C355.696 313.713 355.801 314.579 355.229 314.969C354.82 315.255 354.249 315.131 353.782 314.95C351.583 314.074 350.041 312.085 348.756 310.095C346.49 306.573 344.691 302.745 343.425 299.033C336.637 305.383 330.43 312.361 324.775 319.853C323.985 317.416 322.69 315.15 320.986 313.237C318.987 315.398 316.445 317.054 313.655 317.987C312.884 318.244 311.799 318.32 311.494 317.568C311.295 317.073 311.599 316.521 311.904 316.083C313.675 313.513 315.94 311.294 318.549 309.571C313.827 304.44 307.782 300.546 301.099 298.404C299.699 302.555 298.195 306.677 296.596 310.761C295.777 312.856 294.92 314.96 293.568 316.768C293.416 316.968 293.254 317.168 293.016 317.244C292.34 317.463 291.893 316.549 291.798 315.845C290.96 309.419 293.387 303.06 295.901 296.834C288.789 295.939 281.449 296.976 274.871 299.794C276.337 301.87 276.87 304.573 276.289 307.039C276.194 307.467 276.032 307.915 275.671 308.162C275.033 308.6 274.176 308.172 273.567 307.696C271.853 306.373 270.454 304.649 269.483 302.717C268.264 303.336 267.122 304.097 266.446 305.164C269.873 308.895 272.386 313.455 273.71 318.339C273.976 319.31 273.929 320.729 272.938 320.9C272.453 320.986 271.996 320.681 271.606 320.386C267.464 317.263 264.323 312.837 262.743 307.896C256.897 314.312 251.642 321.69 249.986 330.211C253.108 332.438 255.717 335.39 257.535 338.769C257.944 339.521 258.154 340.73 257.345 341.006C257.021 341.121 256.678 341.006 256.364 340.892C253.223 339.712 250.471 337.532 248.605 334.752C248.396 336.541 248.196 338.341 247.987 340.131C249.148 339.959 250.281 340.54 251.252 341.206C253.518 342.787 255.355 344.986 256.488 347.499C256.726 348.023 256.935 348.584 256.897 349.165C256.859 349.736 256.507 350.336 255.945 350.479C255.517 350.583 255.079 350.431 254.679 350.26C251.947 349.079 249.548 347.147 247.815 344.729C247.806 350.107 248.558 355.505 250.662 360.922Z" fill="#FFDC7E"/>
<path d="M267.838 326.707C268.773 325.982 267.768 323.121 265.593 320.316C263.418 317.512 260.897 315.826 259.962 316.551C259.027 317.276 260.033 320.137 262.208 322.942C264.382 325.746 266.903 327.432 267.838 326.707Z" fill="#FFDC7E"/>
<path d="M305.378 310.395C306.543 306.766 306.574 303.53 305.448 303.169C304.321 302.807 302.464 305.456 301.299 309.086C300.134 312.716 300.103 315.951 301.229 316.313C302.356 316.674 304.213 314.025 305.378 310.395Z" fill="#FFDC7E"/>
<path d="M337.572 327.41C339.018 326.779 339.056 323.67 337.657 320.465C336.259 317.261 333.953 315.174 332.508 315.805C331.062 316.436 331.024 319.545 332.422 322.75C333.821 325.954 336.127 328.041 337.572 327.41Z" fill="#FFDC7E"/>
<path d="M400.364 297.006C401.888 293.159 402.086 289.629 400.806 289.122C399.525 288.614 397.251 291.321 395.726 295.167C394.201 299.014 394.003 302.544 395.284 303.051C396.565 303.559 398.839 300.852 400.364 297.006Z" fill="#FFDC7E"/>
<path d="M281.992 358.076C281.763 358.076 281.554 357.904 281.525 357.666L279.631 344.633L270.52 345.776C270.349 345.804 270.168 345.719 270.073 345.576L264.304 337.198L262.8 335.266C262.638 335.056 262.676 334.761 262.885 334.599C263.095 334.438 263.39 334.476 263.552 334.685L265.075 336.646L270.692 344.805L279.974 343.643C280.231 343.615 280.469 343.786 280.507 344.043L282.468 357.533C282.506 357.79 282.325 358.038 282.068 358.076C282.04 358.076 282.011 358.076 281.992 358.076Z" fill="#1A1340"/>
<path d="M275.138 340.568C275.052 340.568 274.966 340.549 274.89 340.502C274.662 340.359 274.595 340.073 274.738 339.845L284.267 324.422L278.213 313.893C278.079 313.665 278.155 313.379 278.384 313.246C278.612 313.113 278.898 313.189 279.031 313.417L285.229 324.184C285.314 324.337 285.314 324.527 285.219 324.67L275.537 340.34C275.452 340.483 275.299 340.568 275.138 340.568Z" fill="#1A1340"/>
<path d="M288.513 359.275C288.399 359.275 288.285 359.237 288.199 359.151C287.999 358.98 287.99 358.675 288.161 358.476L304.155 340.635C304.326 340.435 304.631 340.426 304.83 340.597C305.03 340.768 305.04 341.073 304.869 341.273L288.875 359.113C288.78 359.218 288.646 359.275 288.513 359.275Z" fill="#1A1340"/>
<path d="M297.433 346.766C297.214 346.766 297.024 346.614 296.967 346.395L293.483 331.601C293.444 331.439 293.492 331.267 293.616 331.153L304.716 320.272C304.907 320.091 305.202 320.091 305.392 320.281C305.573 320.472 305.573 320.767 305.383 320.957L294.473 331.648L297.89 346.185C297.947 346.442 297.795 346.699 297.538 346.756C297.509 346.756 297.471 346.766 297.433 346.766Z" fill="#1A1340"/>
<path d="M328.602 340.464C328.354 340.464 328.145 340.264 328.126 340.016C327.726 333.324 327.317 326.412 324.537 320.196C324.432 319.958 324.537 319.672 324.775 319.567C325.013 319.453 325.298 319.567 325.403 319.805C328.259 326.174 328.688 333.495 329.078 339.959C329.097 340.226 328.897 340.445 328.63 340.464C328.621 340.464 328.611 340.464 328.602 340.464Z" fill="#1A1340"/>
<path d="M376.526 356.448C376.364 356.448 376.202 356.362 376.116 356.21L361.732 331.191L348.166 335.323C348.042 335.361 347.908 335.352 347.794 335.285C347.68 335.218 347.594 335.114 347.566 334.99L343.653 319.872C343.586 319.615 343.739 319.358 343.996 319.291C344.253 319.225 344.51 319.377 344.576 319.634L348.365 334.276L361.817 330.173C362.027 330.106 362.255 330.201 362.369 330.392L376.944 355.743C377.078 355.972 376.992 356.257 376.773 356.391C376.687 356.429 376.602 356.448 376.526 356.448Z" fill="#1A1340"/>
<path d="M369.452 340.568C369.376 340.568 369.29 340.549 369.214 340.511C368.986 340.378 368.9 340.092 369.033 339.864L375.84 327.85L367.996 318.206C367.9 318.092 367.862 317.939 367.9 317.787L372.794 298.204C372.86 297.947 373.108 297.795 373.374 297.862C373.632 297.928 373.784 298.185 373.717 298.442L368.881 317.797L376.783 327.507C376.906 327.659 376.925 327.869 376.83 328.04L369.871 340.33C369.776 340.483 369.624 340.568 369.452 340.568Z" fill="#1A1340"/>
<path d="M373.917 344.262C373.793 344.262 373.67 344.215 373.584 344.119C373.403 343.929 373.403 343.634 373.584 343.443L392.3 324.841C392.433 324.708 392.643 324.67 392.814 324.737L404.438 329.382L412.054 319.234C412.216 319.025 412.511 318.987 412.721 319.139C412.93 319.301 412.978 319.596 412.816 319.805L404.981 330.249C404.848 330.42 404.619 330.487 404.419 330.401L392.748 325.727L374.26 344.11C374.155 344.215 374.031 344.262 373.917 344.262Z" fill="#1A1340"/>
<path d="M178.509 237.8H49.9514C49.9514 237.8 49.6658 235.82 49.5706 235.563C48.6186 229.489 48.2759 223.32 48.552 217.17C51.8268 220.007 55.8538 221.959 60.1092 222.777C60.6804 222.882 61.2802 222.977 61.8324 222.797C62.3845 222.616 62.87 222.092 62.8034 221.511C62.7653 221.169 62.5464 220.883 62.3369 220.616C59.0716 216.561 54.0545 214.324 49.1803 212.591C49.7991 208.973 50.7796 205.403 52.0839 201.976C54.1021 203.271 56.5773 203.861 58.9668 203.604C59.5476 203.547 60.3092 203.166 60.1283 202.605C60.0712 202.414 59.9093 202.281 59.757 202.157C57.8816 200.663 55.6539 199.615 53.3024 199.12C54.2354 197.559 55.1112 195.95 55.9204 194.322C57.615 196.969 60.252 199.006 63.2508 199.968C63.9839 200.206 64.9454 200.32 65.4024 199.691C65.8593 199.063 65.469 198.187 65.0501 197.549C63.3556 194.998 61.1088 192.809 58.1576 190.895C62.137 186.878 66.8684 183.612 72.0378 181.308C72.1711 183.546 73.0184 185.669 73.9323 187.715C74.9128 189.905 75.9696 192.066 77.1024 194.179C77.3214 194.598 77.5594 195.017 77.9402 195.303C78.321 195.588 78.8732 195.684 79.254 195.398C79.5015 195.208 79.6252 194.903 79.7109 194.598C80.1108 193.18 79.8537 191.676 79.53 190.238C78.778 186.887 77.6546 183.612 76.179 180.29C80.206 179.88 84.29 179.966 88.298 180.537C88.2123 182.032 88.5836 183.555 89.3547 184.84C89.6117 185.278 90.0401 185.745 90.5447 185.64C90.8017 185.583 91.0016 185.392 91.173 185.183C91.9822 184.202 92.344 182.87 92.1345 181.613C95.6855 182.689 99.1032 184.221 102.273 186.154C100.426 189.505 99.3888 193.313 99.1127 197.093C99.522 197.264 99.9219 197.435 100.331 197.607C102.787 195.065 104.634 191.942 105.691 188.572C106.757 189.086 107.719 189.819 108.404 190.933C105.091 194.103 102.654 198.178 101.436 202.595C101.302 203.09 101.226 203.728 101.645 204.014C101.95 204.223 102.369 204.137 102.711 203.995C104.33 203.347 105.463 201.891 106.405 200.425C108.071 197.835 109.394 195.027 110.327 192.285C115.316 196.95 119.885 202.081 124.046 207.593C124.626 205.803 125.578 204.137 126.825 202.728C128.291 204.318 130.167 205.537 132.214 206.222C132.785 206.413 133.585 206.47 133.804 205.908C133.946 205.546 133.727 205.137 133.508 204.813C132.204 202.928 130.538 201.291 128.625 200.025C132.099 196.255 136.545 193.389 141.458 191.818C142.486 194.874 143.59 197.902 144.771 200.901C145.37 202.443 146.008 203.995 146.998 205.318C147.103 205.461 147.227 205.613 147.408 205.67C147.903 205.832 148.236 205.156 148.303 204.642C148.912 199.92 147.132 195.246 145.285 190.667C150.511 190.01 155.909 190.771 160.745 192.847C159.669 194.37 159.279 196.359 159.698 198.178C159.774 198.492 159.879 198.825 160.145 199.006C160.612 199.33 161.25 199.006 161.697 198.663C162.954 197.692 163.991 196.426 164.696 194.998C165.591 195.455 166.429 196.017 166.933 196.797C164.42 199.539 162.563 202.89 161.592 206.479C161.402 207.193 161.431 208.231 162.164 208.364C162.516 208.421 162.859 208.202 163.144 207.983C166.191 205.689 168.494 202.433 169.665 198.797C173.968 203.509 177.824 208.945 179.043 215.209C176.748 216.847 174.835 219.017 173.492 221.502C173.197 222.054 173.035 222.939 173.635 223.149C173.873 223.234 174.13 223.149 174.359 223.063C176.663 222.197 178.69 220.597 180.061 218.541C180.214 219.855 180.366 221.178 180.509 222.492C179.652 222.368 178.824 222.797 178.11 223.282C176.444 224.443 175.092 226.062 174.254 227.909C174.083 228.299 173.921 228.708 173.949 229.127C173.978 229.546 174.235 229.984 174.654 230.089C174.968 230.165 175.292 230.051 175.587 229.927C177.596 229.061 179.357 227.642 180.632 225.862C180.623 229.851 180.061 233.821 178.509 237.8Z" fill="#1A1340"/>
<path d="M170.007 209.881C171.605 207.82 172.345 205.719 171.659 205.187C170.974 204.655 169.122 205.895 167.524 207.956C165.926 210.016 165.186 212.118 165.872 212.649C166.558 213.181 168.409 211.942 170.007 209.881Z" fill="#FFDC7E"/>
<path d="M141.343 205.021C142.169 204.756 142.145 202.378 141.288 199.709C140.432 197.041 139.068 195.093 138.242 195.358C137.416 195.623 137.441 198.001 138.297 200.67C139.153 203.338 140.517 205.286 141.343 205.021Z" fill="#FFDC7E"/>
<path d="M118.404 209.767C119.433 207.411 119.403 205.124 118.338 204.659C117.273 204.194 115.576 205.728 114.548 208.084C113.519 210.44 113.549 212.727 114.614 213.192C115.679 213.657 117.376 212.124 118.404 209.767Z" fill="#FFDC7E"/>
<path d="M72.187 195.218C73.1303 194.844 72.9857 192.247 71.8639 189.417C70.742 186.587 69.0679 184.596 68.1246 184.97C67.1813 185.344 67.326 187.941 68.4478 190.771C69.5696 193.601 71.2437 195.592 72.187 195.218Z" fill="#FFDC7E"/>
<path d="M155.481 235.706C155.652 235.706 155.804 235.582 155.823 235.411L157.213 225.833L163.915 226.671C164.039 226.69 164.172 226.633 164.249 226.519L168.485 220.359L169.589 218.941C169.703 218.789 169.684 218.57 169.532 218.446C169.38 218.332 169.161 218.351 169.037 218.503L167.914 219.941L163.782 225.938L156.956 225.081C156.766 225.053 156.594 225.186 156.566 225.376L155.128 235.296C155.1 235.487 155.233 235.668 155.423 235.696C155.452 235.706 155.462 235.706 155.481 235.706Z" fill="#47C9AA"/>
<path d="M160.517 222.835C160.583 222.835 160.64 222.816 160.698 222.787C160.859 222.682 160.917 222.473 160.812 222.301L153.805 210.963L158.26 203.223C158.356 203.052 158.299 202.843 158.127 202.747C157.965 202.652 157.746 202.709 157.651 202.881L153.091 210.801C153.024 210.916 153.034 211.049 153.101 211.163L160.222 222.682C160.288 222.777 160.402 222.835 160.517 222.835Z" fill="#47C9AA"/>
<path d="M150.683 236.591C150.768 236.591 150.854 236.562 150.921 236.505C151.063 236.382 151.073 236.153 150.949 236.01L139.192 222.892C139.059 222.749 138.84 222.739 138.697 222.863C138.554 222.987 138.545 223.215 138.668 223.358L150.426 236.477C150.492 236.553 150.587 236.591 150.683 236.591Z" fill="#47C9AA"/>
<path d="M144.123 227.395C144.285 227.395 144.428 227.29 144.466 227.128L147.027 216.247C147.055 216.133 147.017 215.999 146.932 215.914L138.773 207.917C138.64 207.784 138.411 207.784 138.278 207.926C138.145 208.069 138.145 208.288 138.288 208.421L146.303 216.285L143.79 226.976C143.742 227.166 143.866 227.357 144.047 227.395C144.066 227.385 144.095 227.395 144.123 227.395Z" fill="#47C9AA"/>
<path d="M121.209 222.758C121.39 222.758 121.551 222.616 121.561 222.425C121.856 217.503 122.151 212.42 124.198 207.85C124.274 207.669 124.198 207.469 124.017 207.384C123.846 207.298 123.636 207.384 123.551 207.565C121.456 212.248 121.132 217.637 120.856 222.387C120.847 222.578 120.99 222.749 121.19 222.758C121.19 222.758 121.199 222.758 121.209 222.758Z" fill="#47C9AA"/>
<path d="M85.9751 234.506C86.0989 234.506 86.2131 234.439 86.2798 234.335L96.8565 215.942L106.824 218.979C106.919 219.008 107.014 218.998 107.1 218.95C107.186 218.903 107.243 218.827 107.271 218.731L110.146 207.612C110.194 207.422 110.08 207.231 109.899 207.184C109.708 207.136 109.518 207.25 109.47 207.431L106.681 218.198L96.7898 215.18C96.6375 215.133 96.4662 215.2 96.3805 215.342L85.661 233.982C85.5658 234.154 85.6229 234.363 85.7943 234.458C85.8514 234.497 85.9085 234.506 85.9751 234.506Z" fill="#47C9AA"/>
<path d="M91.173 222.835C91.2301 222.835 91.2872 222.816 91.3443 222.787C91.5157 222.692 91.5728 222.482 91.4776 222.311L86.4796 213.476L92.2487 206.384C92.3154 206.298 92.3439 206.184 92.3154 206.079L88.7168 191.685C88.6692 191.495 88.4788 191.381 88.2884 191.428C88.098 191.476 87.9838 191.666 88.0314 191.857L91.5919 206.089L85.7847 213.229C85.6895 213.343 85.6799 213.496 85.7466 213.619L90.8683 222.654C90.9255 222.768 91.0492 222.835 91.173 222.835Z" fill="#47C9AA"/>
<path d="M87.8886 225.548C87.9743 225.548 88.0695 225.51 88.1362 225.443C88.2694 225.31 88.2694 225.081 88.1362 224.948L74.3798 211.268C74.2846 211.173 74.1323 211.134 73.999 211.192L65.45 214.609L59.8522 207.146C59.738 206.993 59.5191 206.965 59.3667 207.079C59.2144 207.193 59.1763 207.412 59.3001 207.564L65.0597 215.247C65.1549 215.371 65.3262 215.418 65.469 215.361L74.0561 211.925L87.6506 225.443C87.7173 225.519 87.803 225.548 87.8886 225.548Z" fill="#47C9AA"/>
<path d="M50.2942 412.511H162.773C162.773 412.511 163.021 410.778 163.106 410.56C163.934 405.247 164.239 399.85 163.992 394.471C161.126 396.955 157.604 398.66 153.872 399.374C153.377 399.469 152.844 399.545 152.358 399.383C151.873 399.221 151.454 398.764 151.511 398.26C151.549 397.965 151.73 397.708 151.92 397.47C154.776 393.919 159.165 391.967 163.43 390.444C162.887 387.274 162.03 384.161 160.888 381.152C159.117 382.285 156.956 382.799 154.871 382.58C154.357 382.523 153.7 382.199 153.853 381.704C153.91 381.543 154.043 381.419 154.176 381.314C155.814 380.01 157.765 379.086 159.822 378.658C159.003 377.287 158.241 375.888 157.537 374.46C156.052 376.783 153.748 378.553 151.121 379.401C150.473 379.61 149.645 379.705 149.245 379.163C148.845 378.62 149.178 377.849 149.559 377.287C151.035 375.05 153.005 373.146 155.595 371.47C152.111 367.958 147.969 365.102 143.457 363.083C143.343 365.035 142.6 366.901 141.8 368.681C140.944 370.595 140.02 372.48 139.021 374.336C138.83 374.698 138.621 375.069 138.288 375.316C137.954 375.564 137.469 375.65 137.136 375.402C136.917 375.24 136.802 374.974 136.736 374.707C136.393 373.47 136.612 372.146 136.888 370.899C137.545 367.967 138.526 365.102 139.82 362.188C136.298 361.836 132.728 361.903 129.215 362.407C129.291 363.712 128.967 365.044 128.292 366.168C128.063 366.549 127.692 366.958 127.254 366.863C127.025 366.815 126.854 366.644 126.702 366.463C125.997 365.606 125.674 364.435 125.854 363.34C122.741 364.283 119.762 365.616 116.982 367.31C118.6 370.242 119.505 373.574 119.752 376.887C119.4 377.04 119.048 377.182 118.686 377.335C116.544 375.107 114.925 372.384 114.002 369.433C113.069 369.881 112.231 370.518 111.632 371.499C114.535 374.269 116.658 377.839 117.724 381.704C117.848 382.133 117.905 382.694 117.543 382.952C117.277 383.132 116.915 383.056 116.611 382.942C115.192 382.38 114.202 381.105 113.383 379.819C111.927 377.554 110.765 375.098 109.956 372.698C105.586 376.783 101.597 381.276 97.9608 386.093C97.4563 384.532 96.6185 383.066 95.5237 381.838C94.2385 383.228 92.6011 384.294 90.8113 384.894C90.3163 385.065 89.6118 385.103 89.4214 384.618C89.2881 384.294 89.488 383.942 89.688 383.656C90.8304 382.009 92.2869 380.572 93.9624 379.467C90.9256 376.173 87.0319 373.66 82.7384 372.289C81.834 374.964 80.8724 377.611 79.8443 380.238C79.3207 381.581 78.7685 382.942 77.9022 384.103C77.807 384.227 77.7023 384.36 77.55 384.408C77.112 384.551 76.8264 383.961 76.7693 383.504C76.2362 379.372 77.7975 375.278 79.4064 371.27C74.8368 370.699 70.1148 371.366 65.8784 373.174C66.8209 374.507 67.1636 376.249 66.7924 377.839C66.7257 378.115 66.6305 378.401 66.402 378.563C65.9927 378.839 65.4405 378.563 65.0502 378.258C63.9459 377.401 63.0415 376.297 62.4227 375.05C61.642 375.45 60.909 375.945 60.4711 376.621C62.6702 379.02 64.2886 381.952 65.1454 385.094C65.3168 385.722 65.2882 386.626 64.6504 386.74C64.3362 386.798 64.0411 386.598 63.7936 386.407C61.128 384.399 59.1097 381.552 58.0911 378.372C54.3307 382.495 50.9511 387.245 49.8848 392.729C51.8936 394.166 53.5691 396.061 54.74 398.231C55.0066 398.717 55.1399 399.488 54.6163 399.669C54.4068 399.735 54.1879 399.669 53.9784 399.592C51.9602 398.831 50.1895 397.431 48.99 395.642C48.8567 396.794 48.7234 397.946 48.5901 399.097C49.3327 398.983 50.0657 399.364 50.6845 399.792C52.1411 400.811 53.3216 402.22 54.0546 403.848C54.2069 404.191 54.3402 404.543 54.3212 404.914C54.2926 405.285 54.0641 405.666 53.7119 405.761C53.4358 405.828 53.1502 405.733 52.8932 405.619C51.132 404.867 49.5897 403.619 48.4759 402.058C48.4568 405.562 48.9424 409.036 50.2942 412.511Z" fill="#47C9AA"/>
<path d="M61.3401 390.502C61.9425 390.035 61.2973 388.195 59.899 386.392C58.5007 384.589 56.8788 383.506 56.2763 383.973C55.6739 384.44 56.3191 386.28 57.7174 388.083C59.1158 389.887 60.7377 390.97 61.3401 390.502Z" fill="#FFDC7E"/>
<path d="M85.5008 380.01C86.2496 377.677 86.268 375.597 85.5421 375.364C84.8162 375.131 83.6207 376.833 82.872 379.166C82.1232 381.499 82.1047 383.579 82.8306 383.812C83.5566 384.045 84.752 382.343 85.5008 380.01Z" fill="#FFDC7E"/>
<path d="M106.221 390.959C107.151 390.553 107.176 388.552 106.276 386.49C105.375 384.427 103.892 383.084 102.962 383.49C102.032 383.896 102.008 385.897 102.908 387.96C103.808 390.022 105.291 391.365 106.221 390.959Z" fill="#FFDC7E"/>
<path d="M146.585 371.41C147.568 368.932 147.694 366.657 146.868 366.33C146.042 366.002 144.576 367.746 143.594 370.224C142.612 372.702 142.485 374.976 143.311 375.304C144.137 375.631 145.603 373.888 146.585 371.41Z" fill="#FFDC7E"/>
<path d="M70.448 410.683C70.2957 410.683 70.1719 410.569 70.1433 410.417L68.9248 402.039L63.0605 402.772C62.9462 402.791 62.832 402.734 62.7749 402.639L59.0621 397.251L58.091 396.003C57.9863 395.87 58.0149 395.68 58.1481 395.575C58.2814 395.47 58.4718 395.499 58.5765 395.632L59.5571 396.889L63.1747 402.134L69.1437 401.392C69.3056 401.373 69.4579 401.487 69.4865 401.649L70.7431 410.331C70.7717 410.502 70.6479 410.655 70.4861 410.674C70.4765 410.683 70.4575 410.683 70.448 410.683Z" fill="#3E6EFF"/>
<path d="M66.0403 399.421C65.9832 399.421 65.9261 399.402 65.8785 399.374C65.7357 399.288 65.6881 399.097 65.7833 398.955L71.9142 389.035L68.0205 382.266C67.9348 382.123 67.9824 381.933 68.1347 381.847C68.2775 381.762 68.4679 381.809 68.5536 381.961L72.5425 388.892C72.5996 388.987 72.5996 389.111 72.533 389.206L66.3069 399.288C66.2403 399.374 66.1355 399.421 66.0403 399.421Z" fill="#3E6EFF"/>
<path d="M74.6463 411.454C74.5701 411.454 74.5035 411.426 74.4464 411.378C74.3226 411.264 74.3131 411.074 74.4273 410.95L84.7185 399.469C84.8327 399.345 85.0231 399.335 85.1469 399.45C85.2706 399.564 85.2801 399.754 85.1659 399.878L74.8748 411.359C74.8081 411.426 74.732 411.454 74.6463 411.454Z" fill="#3E6EFF"/>
<path d="M80.3869 403.41C80.2441 403.41 80.1203 403.315 80.0918 403.172L77.8546 393.652C77.826 393.547 77.8641 393.443 77.9403 393.366L85.0803 386.369C85.204 386.255 85.3944 386.255 85.5087 386.379C85.6229 386.502 85.6229 386.693 85.4991 386.807L78.4829 393.681L80.682 403.029C80.7201 403.191 80.6154 403.362 80.4535 403.4C80.4345 403.41 80.4059 403.41 80.3869 403.41Z" fill="#3E6EFF"/>
<path d="M100.436 399.354C100.274 399.354 100.141 399.231 100.131 399.069C99.8743 394.766 99.6078 390.32 97.8275 386.322C97.7609 386.169 97.8275 385.988 97.9799 385.922C98.1322 385.855 98.3131 385.922 98.3797 386.074C100.217 390.177 100.493 394.88 100.741 399.04C100.75 399.212 100.626 399.354 100.455 399.364C100.446 399.354 100.436 399.354 100.436 399.354Z" fill="#3E6EFF"/>
<path d="M131.262 409.636C131.157 409.636 131.052 409.579 130.995 409.484L121.742 393.385L113.021 396.042C112.945 396.07 112.86 396.061 112.783 396.013C112.707 395.975 112.66 395.899 112.641 395.823L110.118 386.093C110.08 385.931 110.175 385.76 110.337 385.722C110.499 385.674 110.67 385.779 110.708 385.941L113.145 395.356L121.799 392.719C121.932 392.681 122.085 392.738 122.151 392.862L131.528 409.17C131.614 409.312 131.566 409.503 131.414 409.588C131.366 409.627 131.309 409.636 131.262 409.636Z" fill="#3E6EFF"/>
<path d="M126.711 399.421C126.664 399.421 126.607 399.412 126.559 399.383C126.416 399.297 126.359 399.116 126.445 398.964L130.824 391.234L125.778 385.027C125.721 384.951 125.693 384.855 125.721 384.76L128.872 372.165C128.91 372.003 129.072 371.899 129.244 371.946C129.405 371.984 129.51 372.156 129.463 372.318L126.349 384.77L131.433 391.015C131.509 391.11 131.528 391.253 131.462 391.358L126.987 399.269C126.921 399.364 126.816 399.421 126.711 399.421Z" fill="#3E6EFF"/>
<path d="M129.577 401.801C129.501 401.801 129.415 401.773 129.358 401.715C129.234 401.592 129.234 401.401 129.358 401.287L141.391 389.32C141.477 389.235 141.61 389.206 141.724 389.254L149.207 392.243L154.1 385.712C154.205 385.579 154.395 385.551 154.529 385.655C154.662 385.76 154.691 385.95 154.586 386.084L149.55 392.805C149.464 392.919 149.321 392.957 149.188 392.909L141.677 389.901L129.786 401.725C129.739 401.773 129.662 401.801 129.577 401.801Z" fill="#3E6EFF"/>
</svg>
