<svg width="48" height="69" viewBox="0 0 48 69" fill="none" xmlns="http://www.w3.org/2000/svg">
<g clip-path="url(#clip0_82_308)">
<mask id="mask0_82_308" style="mask-type:luminance" maskUnits="userSpaceOnUse" x="0" y="0" width="48" height="69">
<path d="M47.1697 0H0.75V69H47.1697V0Z" fill="white"/>
</mask>
<g mask="url(#mask0_82_308)">
<path d="M12.3549 69.0002C18.7608 69.0002 23.9599 63.8481 23.9599 57.5001V46.0001H12.3549C5.94901 46.0001 0.75 51.1521 0.75 57.5001C0.75 63.8481 5.94901 69.0002 12.3549 69.0002Z" fill="#0ACF83"/>
<path d="M0.75 34.4998C0.75 28.1519 5.94901 22.9999 12.3549 22.9999H23.9599V45.9999H12.3549C5.94901 45.9999 0.75 40.8478 0.75 34.4998Z" fill="#A259FF"/>
<path d="M0.75 11.5C0.75 5.152 5.94901 0 12.3549 0H23.9599V23H12.3549C5.94901 23 0.75 17.848 0.75 11.5Z" fill="#F24E1E"/>
<path d="M23.9599 0H35.5649C41.9708 0 47.1698 5.152 47.1698 11.5C47.1698 17.848 41.9708 23 35.5649 23H23.9599V0Z" fill="#FF7262"/>
<path d="M47.1698 34.4998C47.1698 40.8478 41.9708 45.9999 35.5649 45.9999C29.159 45.9999 23.9599 40.8478 23.9599 34.4998C23.9599 28.1519 29.159 22.9999 35.5649 22.9999C41.9708 22.9999 47.1698 28.1519 47.1698 34.4998Z" fill="#1ABCFE"/>
</g>
</g>
<defs>
<clipPath id="clip0_82_308">
<rect width="47" height="69" fill="white" transform="translate(0.75)"/>
</clipPath>
</defs>
</svg>
