<svg width="73" height="69" viewBox="0 0 73 69" fill="none" xmlns="http://www.w3.org/2000/svg">
<g clip-path="url(#clip0_82_345)">
<mask id="mask0_82_345" style="mask-type:luminance" maskUnits="userSpaceOnUse" x="0" y="0" width="72" height="69">
<path d="M71.927 0H0.75V69H71.927V0Z" fill="white"/>
</mask>
<g mask="url(#mask0_82_345)">
<path d="M59.3228 0H13.3543C6.39312 0 0.75 5.61079 0.75 12.532V56.468C0.75 63.3892 6.39312 69 13.3543 69H59.3228C66.2839 69 71.927 63.3892 71.927 56.468V12.532C71.927 5.61079 66.2839 0 59.3228 0Z" fill="#330000"/>
<path d="M35.2412 41.4083H24.2115L21.9673 48.3396C21.9368 48.466 21.8628 48.5778 21.7582 48.6558C21.6536 48.7339 21.5249 48.7731 21.3944 48.7669H15.8079C15.4892 48.7669 15.3779 48.5928 15.4736 48.2446L25.0231 20.8994C25.1187 20.6146 25.2142 20.2902 25.3097 19.9262C25.4346 19.2928 25.4986 18.649 25.5007 18.0035C25.4942 17.9584 25.4984 17.9123 25.5129 17.8691C25.5274 17.8258 25.5518 17.7866 25.5843 17.7543C25.6167 17.7221 25.6563 17.6977 25.6997 17.6833C25.7433 17.6688 25.7895 17.6647 25.835 17.6712H33.4267C33.6492 17.6712 33.7765 17.7503 33.8087 17.9085L44.6476 48.2921C44.7431 48.6089 44.6475 48.7672 44.3611 48.7669H38.1538C38.0472 48.7786 37.9399 48.7514 37.852 48.6902C37.7642 48.6291 37.7017 48.5382 37.6764 48.4346L35.2412 41.4083ZM25.9304 35.4266H33.4745C33.2836 34.7939 33.0607 34.0817 32.8061 33.2902C32.5509 32.4995 32.2804 31.6528 31.9944 30.7503C31.7079 29.8484 31.4213 28.9464 31.1348 28.0443C30.8484 27.1423 30.5858 26.2719 30.3471 25.4332C30.1083 24.595 29.8934 23.8275 29.7026 23.1307H29.6548C29.3859 24.4129 29.0513 25.6805 28.6521 26.9287C28.2059 28.3529 27.7522 29.8088 27.2912 31.2963C26.8293 32.7843 26.3757 34.1611 25.9304 35.4266Z" fill="#FF9A00"/>
<path d="M51.093 22.7036C50.606 22.723 50.1204 22.6401 49.6679 22.4601C49.2153 22.2801 48.8061 22.0072 48.4669 21.6591C48.1287 21.296 47.8659 20.87 47.6938 20.4057C47.5217 19.9412 47.4437 19.4476 47.4641 18.9531C47.4468 18.4635 47.5334 17.9758 47.7186 17.5217C47.9037 17.0677 48.1831 16.6576 48.5384 16.3183C48.8903 15.9824 49.3058 15.7193 49.7607 15.5441C50.2155 15.3689 50.7008 15.2851 51.1884 15.2976C52.3345 15.2976 53.2338 15.6378 53.8863 16.3183C54.2156 16.6719 54.4716 17.0866 54.6396 17.5387C54.8075 17.9908 54.8841 18.4715 54.865 18.9531C54.885 19.4495 54.8044 19.9449 54.628 20.4097C54.4517 20.8746 54.1832 21.2995 53.8385 21.6591C53.4782 22.0123 53.0482 22.2874 52.5757 22.4671C52.1032 22.6469 51.5984 22.7274 51.093 22.7036ZM47.7983 48.2922V25.5995C47.7983 25.3147 47.9252 25.1722 48.1803 25.1722H54.0533C54.3079 25.1722 54.4351 25.3146 54.4354 25.5995V48.2922C54.4354 48.609 54.308 48.7672 54.0533 48.767H48.2281C47.9417 48.767 47.7985 48.6087 47.7983 48.2922Z" fill="#FF9A00"/>
</g>
</g>
<defs>
<clipPath id="clip0_82_345">
<rect width="72" height="69" fill="white" transform="translate(0.75)"/>
</clipPath>
</defs>
</svg>
