<svg width="476" height="476" viewBox="0 0 476 476" fill="none" xmlns="http://www.w3.org/2000/svg">
<path d="M352.059 382.276C352.059 382.276 343.329 398.602 340.568 401.687C337.827 404.762 333.819 406.713 329.306 406.656L250.823 405.895L200.348 405.4C192.904 405.324 186.659 399.764 185.716 392.376L148.845 101.959C148.417 98.6082 149.131 95.3904 150.683 92.6867C153.263 88.2028 160.107 76.3314 160.107 76.3314" fill="#1A1340"/>
<path d="M353.363 374.06C354.487 383.018 347.451 390.882 338.436 390.796L259.953 390.034L209.478 389.539C202.033 389.463 195.788 383.904 194.846 376.516L157.965 86.0989C156.823 77.1406 163.849 69.239 172.883 69.3342L302.517 70.5908C309.971 70.667 316.235 76.2457 317.159 83.6332L353.363 374.06Z" fill="#E7E9F2"/>
<path d="M158.794 92.6201L149.264 106.329L150.321 114.497L159.984 102.131L158.794 92.6201Z" fill="#47C9AA"/>
<path d="M158.337 88.9073L148.826 102.283L149.017 96.8374L150.149 93.6006L153.215 88.4789L157.946 80.9676L157.889 82.8525L158.337 88.9073Z" fill="#47C9AA"/>
<path d="M194.694 373.622L184.402 383.646L185.212 389.216L195.246 379.267V379.305C195.236 379.286 194.713 373.584 194.694 373.622Z" fill="#47C9AA"/>
<path d="M196.912 382.209L186.145 394.042L188.096 398.821L190.609 401.344L190.647 401.259L202.224 387.588L199.254 385.436C199.254 385.436 196.883 382.085 196.912 382.209Z" fill="#47C9AA"/>
<path d="M223.796 405.676L203.252 405.552L197.788 405.143L194.398 403.943L206.451 389.149L227.442 389.587L236.867 389.834L223.796 405.676Z" fill="#47C9AA"/>
<path d="M339.264 390.663L328.811 406.656L332.505 406.447L337.103 404.495L341.254 401.001L349.632 386.588L345.262 389.063C345.262 389.073 339.616 390.815 339.264 390.663Z" fill="#47C9AA"/>
<path d="M209.802 79.3111C209.83 76.8359 211.839 74.8367 214.343 74.8653L263.219 75.3508C265.694 75.3794 267.693 77.3881 267.664 79.8919C267.636 82.3671 265.627 84.3662 263.123 84.3377L214.248 83.8522C211.763 83.8141 209.764 81.7863 209.802 79.3111Z" fill="#1A1340"/>
<path d="M216.266 80.939C217.128 80.939 217.827 80.24 217.827 79.3777C217.827 78.5155 217.128 77.8165 216.266 77.8165C215.404 77.8165 214.705 78.5155 214.705 79.3777C214.705 80.24 215.404 80.939 216.266 80.939Z" fill="#E7E9F2"/>
<path d="M329.306 407.17L200.32 405.923C192.656 405.847 186.164 400.069 185.202 392.472L148.322 102.045C147.893 98.6939 148.56 95.3619 150.226 92.4678C152.806 87.9839 159.65 76.1124 159.65 76.1124L160.517 76.617C160.517 76.617 153.672 88.4884 151.092 92.9724C149.531 95.6856 148.912 98.7891 149.312 101.931L186.183 392.348C187.078 399.45 193.161 404.867 200.32 404.933L329.306 406.18C333.467 406.209 337.427 404.457 340.188 401.363C342.863 398.364 351.517 382.199 351.602 382.047C351.726 381.8 352.04 381.714 352.278 381.838C352.535 381.961 352.611 382.276 352.478 382.504C352.116 383.171 343.672 398.917 340.93 402.03C337.989 405.324 333.743 407.218 329.306 407.17Z" fill="#1A1340"/>
<path d="M338.417 391.291L209.44 390.044C201.777 389.968 195.284 384.189 194.322 376.592L157.442 86.1655C156.88 81.7483 158.251 77.3215 161.212 73.9799C164.172 70.6479 168.418 68.7725 172.874 68.8201L302.508 70.0767C310.181 70.1529 316.673 75.9506 317.625 83.5666L353.839 374.003C354.392 378.401 353.021 382.837 350.06 386.141C347.118 389.454 342.872 391.339 338.417 391.291ZM172.874 69.8197C168.714 69.7911 164.753 71.5428 161.973 74.6463C159.203 77.7594 157.927 81.9006 158.451 86.0227L195.322 376.44C196.217 383.542 202.3 388.959 209.459 389.025L338.446 390.272C342.606 390.301 346.566 388.549 349.346 385.446C352.107 382.342 353.392 378.211 352.868 374.088L316.664 83.6713C315.779 76.5408 309.695 71.1144 302.527 71.0668L172.874 69.8197Z" fill="#1A1340"/>
<path d="M228.471 91.1159L213.629 90.9636C213.343 90.9636 213.134 90.7351 213.134 90.4591C213.134 90.1735 213.362 89.964 213.638 89.964L228.48 90.1259C228.766 90.1259 228.975 90.3543 228.975 90.6304C228.966 90.9065 228.737 91.1159 228.471 91.1159Z" fill="#E7E9F2"/>
<path d="M265.694 90.4781L251.347 90.3353C251.061 90.3353 250.852 90.1068 250.852 89.8307C250.852 89.5451 251.081 89.3357 251.357 89.3357L265.703 89.4785C265.989 89.4785 266.198 89.707 266.198 89.9831C266.198 90.2591 265.97 90.4781 265.694 90.4781Z" fill="#E7E9F2"/>
<path d="M240.551 96.152C240.275 96.152 240.056 95.9235 240.056 95.657L240.018 85.6134C240.018 85.3278 240.247 85.1183 240.513 85.1088C240.789 85.0898 241.008 85.3373 241.018 85.6039L241.056 95.6379C241.056 95.914 240.828 96.1425 240.551 96.152Z" fill="#E7E9F2"/>
<path d="M243.417 93.8291C243.141 93.8291 242.931 93.6197 242.922 93.3341L242.712 87.7363C242.703 87.4603 242.912 87.2318 243.198 87.2223C243.446 87.2032 243.703 87.4222 243.712 87.7078L243.922 93.3055C243.931 93.5816 243.722 93.8101 243.436 93.8196C243.436 93.8291 243.426 93.8386 243.417 93.8291Z" fill="#E7E9F2"/>
<path d="M245.864 92.2583C245.607 92.2488 245.397 92.0584 245.369 91.7728L245.216 89.012C245.197 88.7359 245.407 88.4979 245.683 88.4884C245.959 88.4694 246.197 88.6788 246.206 88.9549L246.359 91.7157C246.378 91.9918 246.168 92.2298 245.892 92.2393C245.883 92.2583 245.873 92.2583 245.864 92.2583Z" fill="#E7E9F2"/>
<path d="M248.367 91.3063C247.853 91.3063 247.834 90.9446 247.749 89.6213C247.739 89.3547 247.929 89.1167 248.196 89.0977C248.453 89.0691 248.701 89.2691 248.729 89.5356L248.853 90.7542C248.872 90.897 248.824 91.0303 248.739 91.154C248.643 91.2492 248.501 91.3063 248.367 91.3063Z" fill="#E7E9F2"/>
<path d="M237.591 93.7816C237.315 93.7816 237.105 93.5721 237.096 93.2865L236.886 87.5459C236.877 87.2699 237.086 87.0414 237.372 87.0319C237.648 87.0223 237.876 87.2318 237.886 87.5174L238.095 93.2579C238.105 93.534 237.895 93.7625 237.61 93.772C237.61 93.7815 237.6 93.7625 237.591 93.7816Z" fill="#E7E9F2"/>
<path d="M234.896 92.4202C234.639 92.4107 234.43 92.2203 234.401 91.9347L234.249 89.0882C234.23 88.8121 234.44 88.5741 234.716 88.5646C234.973 88.5646 235.23 88.755 235.239 89.0311L235.392 91.8775C235.411 92.1536 235.201 92.3916 234.925 92.4011C234.925 92.4297 234.906 92.4202 234.896 92.4202Z" fill="#E7E9F2"/>
<path d="M232.069 91.6871C231.784 91.6871 231.574 91.4587 231.574 91.1826L231.584 89.9259C231.584 89.6403 231.812 89.4309 232.088 89.4309C232.364 89.4309 232.583 89.6594 232.583 89.9355L232.574 91.1921C232.574 91.4587 232.345 91.6967 232.069 91.6871Z" fill="#E7E9F2"/>
<path d="M194.282 167.823C200.408 167.019 204.472 159.501 203.361 151.029C202.249 142.558 196.382 136.342 190.257 137.146C184.132 137.95 180.067 145.469 181.179 153.94C182.29 162.411 188.157 168.627 194.282 167.823Z" fill="#6D74F2"/>
<path d="M202.404 212.567C208.53 211.763 212.594 204.244 211.483 195.773C210.371 187.302 204.504 181.086 198.379 181.89C192.254 182.693 188.189 190.212 189.301 198.683C190.412 207.155 196.279 213.37 202.404 212.567Z" fill="#6D74F2"/>
<path d="M209.194 260.641C215.319 259.838 219.383 252.319 218.272 243.848C217.16 235.376 211.294 229.161 205.168 229.964C199.043 230.768 194.978 238.287 196.09 246.758C197.202 255.229 203.068 261.445 209.194 260.641Z" fill="#6D74F2"/>
<path d="M215.793 308.718C221.918 307.914 225.982 300.395 224.871 291.924C223.759 283.453 217.893 277.237 211.767 278.041C205.642 278.845 201.577 286.363 202.689 294.835C203.801 303.306 209.667 309.522 215.793 308.718Z" fill="#6D74F2"/>
<path d="M273.516 369.862C282.748 368.65 288.874 357.319 287.199 344.552C285.524 331.785 276.682 322.418 267.449 323.629C258.217 324.84 252.091 336.172 253.766 348.939C255.441 361.706 264.283 371.073 273.516 369.862Z" fill="#1A1340"/>
<path d="M269.359 155.738C269.34 155.738 269.321 155.738 269.311 155.738C269.054 155.709 268.864 155.481 268.892 155.214C268.969 154.433 269.054 153.586 269.188 152.72L270.815 139.116C267.807 140.039 265.161 142 262.59 143.895C262.029 144.314 261.467 144.723 260.905 145.123C258.002 147.208 253.632 149.892 249.034 149.226C248.529 149.15 248.034 149.045 247.539 148.931C246.863 148.779 246.225 148.636 245.578 148.588C244.521 148.512 243.426 148.712 242.379 148.902L233.107 150.587C232.945 150.625 232.764 150.559 232.659 150.426C232.545 150.292 232.517 150.111 232.574 149.959C232.764 149.426 232.735 148.807 232.497 148.293L228.166 153.139C228.023 153.291 227.804 153.339 227.623 153.253C227.433 153.167 227.319 152.977 227.338 152.767C227.766 148.512 228.585 144.209 229.432 140.011C224.329 145.561 217.285 149.064 211.02 152.187C210.782 152.301 210.497 152.206 210.383 151.968C210.268 151.73 210.363 151.444 210.601 151.33C217.294 147.998 224.872 144.228 229.899 138.021C230.041 137.85 230.279 137.793 230.47 137.888C230.67 137.983 230.774 138.202 230.736 138.411C229.87 142.657 228.985 147.046 228.461 151.378L232.221 147.17C232.317 147.065 232.459 147.017 232.583 147.008C232.726 147.008 232.85 147.075 232.945 147.179C233.478 147.827 233.735 148.683 233.659 149.512L242.227 147.95C243.341 147.75 244.483 147.541 245.664 147.617C246.387 147.665 247.092 147.827 247.768 147.979C248.234 148.084 248.71 148.198 249.186 148.265C253.441 148.883 257.602 146.313 260.372 144.333C260.924 143.933 261.486 143.524 262.038 143.114C264.865 141.02 267.798 138.849 271.272 137.983C271.425 137.945 271.587 137.983 271.701 138.088C271.815 138.192 271.872 138.345 271.863 138.497L270.692 148.331C270.749 148.236 270.815 148.131 270.882 148.036C272.367 145.894 275.509 144.571 277.822 146.018C278.136 146.218 278.422 146.456 278.689 146.684C279.05 146.989 279.393 147.284 279.783 147.446C280.678 147.817 281.744 147.522 282.782 147.236C290.036 145.247 297.51 144.59 304.992 145.275C305.249 145.304 305.449 145.532 305.421 145.789C305.402 146.056 305.164 146.246 304.907 146.218C297.538 145.542 290.179 146.189 283.039 148.15C281.897 148.464 280.612 148.817 279.422 148.312C278.898 148.093 278.479 147.741 278.079 147.398C277.822 147.179 277.584 146.979 277.318 146.808C275.49 145.666 272.881 146.817 271.672 148.56C270.815 149.797 270.406 151.263 270.168 152.748L269.863 155.262C269.797 155.566 269.597 155.738 269.359 155.738Z" fill="#1A1340"/>
<path d="M173.512 104.539C169.656 104.539 165.791 102.721 163.373 101.312C163.144 101.179 163.068 100.883 163.201 100.665C163.335 100.436 163.63 100.36 163.849 100.493C167.295 102.502 173.788 105.386 178.586 102.112C181.88 99.8648 182.917 95.6475 183.926 91.5634C184.145 90.678 184.364 89.8022 184.593 88.9549C185.031 87.3746 185.669 85.5848 187.03 84.3758C189.334 82.3195 192.571 82.6622 195.712 82.9859C198.844 83.3095 201.815 83.6237 203.709 81.634C205.956 79.2731 204.928 75.3413 203.785 72.1807C203.7 71.9331 203.823 71.6571 204.071 71.5714C204.318 71.4857 204.594 71.6095 204.68 71.857C205.918 75.2747 207.003 79.5491 204.404 82.2909C202.195 84.6233 198.854 84.2711 195.617 83.9379C192.552 83.6237 189.658 83.3191 187.668 85.0898C186.497 86.137 185.926 87.7649 185.516 89.2119C185.278 90.0497 185.069 90.9255 184.85 91.7919C183.803 96.0473 182.717 100.436 179.128 102.892C177.377 104.082 175.444 104.539 173.512 104.539Z" fill="#47C9AA"/>
<path d="M191.504 127.168C190.847 127.168 190.2 127.111 189.61 127.054C180.718 126.14 172.226 122.846 165.039 117.534C164.829 117.382 164.782 117.077 164.944 116.868C165.105 116.658 165.401 116.61 165.61 116.772C172.655 121.989 180.994 125.217 189.705 126.111C190.857 126.235 192.19 126.33 193.418 125.997C197.045 125.017 198.787 120.457 198.368 116.62C198.102 114.126 197.197 111.698 196.321 109.347C195.798 107.938 195.255 106.491 194.846 105.015C193.465 100.046 194.227 95.5903 196.902 93.077C198.235 91.8204 199.93 91.1254 201.567 90.4495C202.148 90.2115 202.728 89.9735 203.29 89.707C204.775 89.012 207.317 87.4793 207.536 85.0231C207.565 84.7566 207.793 84.5757 208.05 84.5947C208.307 84.6233 208.507 84.8518 208.479 85.1088C208.202 88.0314 205.356 89.7831 203.68 90.5638C203.1 90.8303 202.509 91.0778 201.91 91.3254C200.282 92.0013 198.74 92.6296 197.531 93.7625C195.122 96.0282 194.456 100.131 195.741 104.749C196.141 106.186 196.674 107.614 197.188 109.004C198.083 111.403 199.006 113.888 199.292 116.506C199.749 120.685 197.921 125.759 193.646 126.911C192.942 127.111 192.218 127.168 191.504 127.168Z" fill="#47C9AA"/>
<path d="M308.41 137.602C306.906 137.602 305.459 137.212 304.231 136.45C302.717 135.508 301.556 134.127 300.442 132.795C299.214 131.328 298.052 129.948 296.472 129.12C295.644 128.691 294.749 128.434 293.797 128.158C292.721 127.854 291.607 127.53 290.598 126.93C288.085 125.426 286.523 122.199 286.419 118.296C286.295 113.555 287.961 108.994 289.579 104.587C291.207 100.141 292.892 95.5523 292.654 90.8684C292.321 84.252 287.78 77.9688 281.602 75.5793C281.354 75.4841 281.23 75.208 281.326 74.9605C281.421 74.713 281.697 74.5892 281.944 74.6844C288.456 77.2072 293.254 83.8331 293.597 90.8113C293.844 95.6951 292.121 100.379 290.465 104.91C288.884 109.232 287.247 113.697 287.361 118.257C287.456 121.837 288.846 124.76 291.074 126.092C291.969 126.626 292.978 126.911 294.044 127.225C294.996 127.501 295.986 127.777 296.9 128.263C298.652 129.177 299.928 130.7 301.165 132.166C302.289 133.499 303.345 134.765 304.735 135.622C306.458 136.688 308.686 136.917 310.847 136.25C313.008 135.584 314.722 134.137 315.54 132.29C315.645 132.052 315.931 131.947 316.169 132.052C316.407 132.157 316.521 132.442 316.407 132.68C315.474 134.784 313.541 136.422 311.123 137.164C310.219 137.469 309.305 137.602 308.41 137.602Z" fill="#47C9AA"/>
<path d="M307.972 129.796C307.315 129.796 306.658 129.653 306.03 129.31C304.754 128.615 304.078 127.359 303.431 126.14C302.945 125.236 302.488 124.369 301.803 123.741C301.384 123.351 300.88 123.056 300.346 122.741C299.966 122.522 299.575 122.284 299.204 122.018C295.815 119.524 295.615 114.554 297.148 111.136C298.738 107.586 301.832 105.015 304.849 102.673L305.373 102.273C308.153 100.141 311.018 97.9323 312.799 94.962C312.932 94.7335 313.227 94.6669 313.456 94.8002C313.684 94.9335 313.751 95.2286 313.617 95.4571C311.742 98.5891 308.8 100.845 305.954 103.035L305.43 103.435C302.498 105.691 299.518 108.185 298.014 111.527C296.634 114.602 296.776 119.048 299.766 121.247C300.099 121.485 300.451 121.694 300.822 121.923C301.375 122.246 301.946 122.58 302.441 123.037C303.241 123.779 303.764 124.75 304.259 125.683C304.868 126.825 305.449 127.911 306.468 128.463C308.61 129.624 311.314 127.739 312.742 126.511C314.693 124.836 317.064 122.789 319.758 123.322C320.015 123.37 320.186 123.627 320.129 123.884C320.081 124.141 319.834 124.312 319.567 124.255C317.33 123.817 315.245 125.616 313.398 127.206C311.913 128.501 309.924 129.796 307.972 129.796Z" fill="#47C9AA"/>
<path d="M180.718 244.931C180.69 244.931 180.671 244.931 180.642 244.921C180.385 244.883 180.204 244.635 180.242 244.378C180.775 240.989 182.527 237.99 184.222 235.096C185.602 232.735 187.03 230.298 187.763 227.69C188.724 224.263 188.458 220.426 187.03 217.17C185.973 214.762 184.298 212.61 182.67 210.535C180.842 208.193 178.957 205.775 177.891 202.938C177.796 202.69 177.919 202.414 178.167 202.329C178.414 202.233 178.69 202.357 178.776 202.605C179.795 205.308 181.632 207.669 183.412 209.945C185.069 212.068 186.782 214.267 187.887 216.78C189.429 220.293 189.705 224.253 188.667 227.947C187.896 230.679 186.44 233.164 185.031 235.572C183.308 238.524 181.67 241.313 181.166 244.521C181.147 244.759 180.947 244.931 180.718 244.931Z" fill="#47C9AA"/>
<path d="M188.744 300.27C188.477 300.27 188.268 300.051 188.268 299.785C188.344 295.034 190.619 290.608 192.828 286.333C195.512 281.116 198.054 276.185 196.769 270.892C196.169 268.435 194.817 266.313 193.37 264.075C192.114 262.124 190.819 260.105 190.095 257.849C188.058 251.566 190.714 245.092 193.285 238.828C195.988 232.231 198.54 226.005 196.103 219.979C194.855 216.894 192.39 214.429 190.01 212.039C189.572 211.601 189.143 211.173 188.715 210.735C182.194 204.042 176.977 195.884 173.645 187.144C173.55 186.897 173.673 186.621 173.921 186.525C174.168 186.43 174.445 186.554 174.54 186.801C177.824 195.417 182.965 203.461 189.4 210.059C189.819 210.497 190.257 210.925 190.686 211.354C193.132 213.81 195.665 216.342 196.988 219.607C199.568 225.986 196.826 232.688 194.17 239.171C191.666 245.273 189.086 251.576 191.009 257.535C191.704 259.668 192.961 261.638 194.18 263.542C195.598 265.751 197.064 268.036 197.702 270.644C199.073 276.289 196.331 281.602 193.684 286.752C191.533 290.941 189.305 295.263 189.229 299.785C189.21 300.07 189.001 300.27 188.744 300.27Z" fill="#47C9AA"/>
<path d="M260.486 385.998C260.477 385.998 260.467 385.998 260.458 385.998C260.191 385.979 259.991 385.76 260.01 385.493C260.401 379.296 255.859 374.022 251.48 371.147C247.72 368.681 243.369 367.139 239.161 365.644C237.791 365.159 236.41 364.673 235.058 364.15C229.156 361.893 225.967 359.009 225.31 355.334C224.977 353.459 225.348 351.516 225.719 349.641C226.205 347.156 226.662 344.805 225.453 342.853C224.558 341.416 222.939 340.578 221.349 339.835C218.969 338.731 216.456 337.693 214.029 336.684C205.708 333.238 197.093 329.668 191.438 322.614C191.276 322.414 191.304 322.109 191.514 321.947C191.714 321.786 192.018 321.814 192.18 322.024C197.683 328.887 206.175 332.41 214.39 335.808C216.827 336.818 219.341 337.865 221.74 338.979C223.463 339.778 225.224 340.692 226.252 342.358C227.661 344.634 227.147 347.28 226.643 349.831C226.29 351.621 225.929 353.478 226.233 355.172C226.833 358.495 229.822 361.141 235.382 363.264C236.734 363.778 238.095 364.264 239.466 364.749C243.731 366.263 248.139 367.824 251.994 370.357C256.602 373.374 261.372 378.963 260.953 385.56C260.943 385.798 260.734 385.998 260.486 385.998Z" fill="#47C9AA"/>
<path d="M210.068 387.835C210.04 387.835 210.002 387.835 209.973 387.826C209.716 387.769 209.554 387.521 209.602 387.264C209.84 386.15 210.811 385.284 212.42 384.751C215.685 383.656 219.169 383.932 222.54 384.208C223.787 384.303 225.081 384.408 226.338 384.437C230.689 384.532 235.944 383.209 237.667 379.163C239.352 375.202 236.667 370.604 233.211 368.624C229.242 366.349 224.405 366.491 220.636 366.863C219.579 366.967 218.522 367.101 217.465 367.224C214.171 367.634 210.754 368.053 207.384 367.662C203.338 367.186 198.321 365.082 196.388 360.58C196.283 360.342 196.398 360.056 196.636 359.951C196.874 359.846 197.159 359.961 197.264 360.199C199.035 364.33 203.709 366.272 207.498 366.71C210.754 367.091 214.105 366.672 217.351 366.272C218.417 366.139 219.484 366.006 220.55 365.901C224.463 365.511 229.489 365.378 233.697 367.786C237.505 369.966 240.447 375.078 238.552 379.524C236.648 384.008 230.974 385.484 226.329 385.379C225.043 385.351 223.739 385.246 222.473 385.141C219.198 384.884 215.809 384.608 212.724 385.646C211.839 385.941 210.744 386.493 210.544 387.454C210.487 387.683 210.297 387.835 210.068 387.835Z" fill="#47C9AA"/>
<path d="M320.729 386.179C320.634 386.179 320.538 386.15 320.453 386.093C317.359 383.894 310.343 378.039 312.028 371.137C312.856 367.72 315.531 365.311 318.12 362.969C318.682 362.455 319.244 361.95 319.786 361.436C326.784 354.753 331.467 342.834 326.898 332.981C326.079 331.21 324.975 329.535 323.909 327.916C322.795 326.231 321.652 324.48 320.795 322.604C318.054 316.588 318.482 309.343 321.909 303.688C325.337 298.033 331.563 294.301 338.169 293.949C338.436 293.92 338.655 294.139 338.674 294.396C338.684 294.663 338.484 294.882 338.227 294.901C331.934 295.234 326.003 298.795 322.738 304.183C319.472 309.571 319.063 316.483 321.681 322.214C322.509 324.032 323.632 325.746 324.727 327.402C325.813 329.049 326.936 330.763 327.783 332.591C332.048 341.787 329.04 353.935 320.462 362.141C319.92 362.664 319.348 363.178 318.777 363.693C316.302 365.93 313.732 368.253 312.97 371.385C311.428 377.725 318.092 383.256 321.024 385.341C321.243 385.493 321.291 385.788 321.138 386.007C321.024 386.112 320.881 386.179 320.729 386.179Z" fill="#47C9AA"/>
<path d="M347.232 345.014C347.204 345.014 347.175 345.014 347.147 345.005C343.653 344.405 341.254 341.492 339.864 339.16C339.179 338.017 338.588 336.808 338.017 335.628C337.265 334.085 336.484 332.486 335.494 331.068C334.78 330.049 333.943 329.087 333.133 328.154C332.277 327.174 331.391 326.165 330.639 325.06C327.469 320.424 326.755 314.293 328.783 309.057C330.81 303.821 335.475 299.775 340.94 298.49C341.206 298.433 341.454 298.585 341.511 298.842C341.568 299.099 341.416 299.356 341.159 299.414C335.989 300.623 331.591 304.45 329.668 309.39C327.745 314.341 328.421 320.129 331.42 324.508C332.143 325.565 333.01 326.555 333.847 327.517C334.676 328.469 335.532 329.449 336.275 330.515C337.303 331.991 338.103 333.628 338.874 335.209C339.436 336.361 340.016 337.551 340.683 338.664C341.977 340.826 344.177 343.52 347.309 344.062C347.566 344.11 347.747 344.357 347.699 344.614C347.661 344.852 347.461 345.014 347.232 345.014Z" fill="#47C9AA"/>
<path d="M341.549 384.979C337.217 384.979 332.705 383.656 330.03 379.934C328.811 378.23 328.012 376.04 327.593 373.222C327.088 369.862 327.003 364.902 329.411 360.332C331.62 356.143 335.618 353.259 339.855 352.811C341.187 352.668 343.691 352.678 345.471 354.344C346.823 355.61 347.509 357.619 347.518 360.322C347.518 360.932 347.499 361.551 347.471 362.16C347.413 363.607 347.356 364.978 347.642 366.32C348.004 368.015 349.251 369.938 351.107 370.176C351.364 370.204 351.555 370.442 351.517 370.709C351.478 370.975 351.24 371.156 350.983 371.118C348.651 370.833 347.156 368.605 346.699 366.52C346.385 365.054 346.442 363.559 346.509 362.122C346.538 361.522 346.557 360.922 346.557 360.322C346.547 357.885 345.966 356.115 344.814 355.039C343.72 354.011 341.939 353.544 339.95 353.754C336.028 354.173 332.305 356.867 330.249 360.779C327.964 365.121 328.05 369.871 328.535 373.089C328.935 375.745 329.678 377.811 330.801 379.382C334.162 384.065 340.978 384.579 345.805 383.599C346.062 383.542 346.309 383.713 346.366 383.97C346.414 384.227 346.252 384.475 345.995 384.532C344.605 384.808 343.091 384.979 341.549 384.979Z" fill="#6D74F2"/>
<path d="M328.669 233.04C323.909 233.04 319.025 229.603 317.064 224.634C315.217 219.95 315.626 214.238 318.216 208.526C318.653 207.565 319.149 206.594 319.625 205.651C321.214 202.538 322.852 199.32 322.576 195.931C322.233 191.714 319.206 188.572 316.007 185.24C312.913 182.022 309.714 178.69 309.153 174.302C308.791 171.427 309.657 168.599 310.561 166.21C312.732 160.46 315.826 155.147 319.758 150.416C319.929 150.216 320.224 150.188 320.434 150.359C320.634 150.53 320.662 150.825 320.491 151.025C316.626 155.671 313.579 160.888 311.456 166.543C310.6 168.828 309.762 171.512 310.105 174.178C310.619 178.262 313.713 181.47 316.702 184.583C319.882 187.887 323.166 191.304 323.537 195.865C323.832 199.52 322.128 202.862 320.481 206.099C320.005 207.031 319.52 207.993 319.091 208.935C317.654 212.106 315.598 218.313 317.959 224.301C319.977 229.432 325.327 232.802 330.116 231.993C330.373 231.955 330.62 232.126 330.668 232.383C330.715 232.64 330.534 232.888 330.277 232.935C329.735 232.993 329.202 233.04 328.669 233.04Z" fill="#47C9AA"/>
<path d="M328.373 183.898C328.221 183.898 328.069 183.822 327.974 183.679C326.707 181.737 324.423 180.718 322.214 179.738L321.795 179.557C319.348 178.462 316.721 176.986 315.731 174.387C314.826 171.998 315.598 169.389 316.464 167.152C318.139 162.849 320.358 158.756 323.061 155.005C323.214 154.786 323.518 154.748 323.728 154.9C323.937 155.052 323.994 155.347 323.832 155.566C321.176 159.251 318.996 163.268 317.349 167.504C316.54 169.57 315.826 171.969 316.616 174.064C317.473 176.339 319.91 177.681 322.176 178.7L322.585 178.881C324.927 179.918 327.345 181.004 328.754 183.174C328.897 183.393 328.83 183.688 328.611 183.831C328.545 183.879 328.459 183.898 328.373 183.898Z" fill="#47C9AA"/>
<path d="M337.427 279.936C337.256 279.936 337.084 279.84 336.998 279.669C336.104 277.86 334.181 276.48 331.858 275.985C329.963 275.575 327.774 275.709 325.175 276.375C324.661 276.508 324.137 276.651 323.623 276.804C322.3 277.184 320.938 277.575 319.529 277.708C317.216 277.927 315.122 277.327 313.808 276.051C311.999 274.281 311.561 271.253 312.646 267.95C314.474 262.381 318.949 258.401 323.28 254.546C326.784 251.433 330.411 248.215 332.619 244.169C332.743 243.941 333.038 243.855 333.267 243.979C333.495 244.102 333.581 244.397 333.457 244.626C331.163 248.815 327.479 252.09 323.918 255.26C319.482 259.201 315.302 262.923 313.551 268.245C312.799 270.53 312.656 273.595 314.474 275.366C315.588 276.451 317.397 276.965 319.444 276.756C320.767 276.632 322.09 276.251 323.366 275.88C323.889 275.728 324.413 275.575 324.937 275.442C327.678 274.738 330.011 274.604 332.048 275.042C334.657 275.604 336.818 277.165 337.846 279.231C337.96 279.469 337.865 279.755 337.627 279.869C337.57 279.917 337.494 279.936 337.427 279.936Z" fill="#47C9AA"/>
<path d="M194.237 157.927C193.999 157.927 193.761 157.832 193.589 157.67L186.954 151.463C186.573 151.101 186.554 150.502 186.906 150.121C187.268 149.74 187.868 149.721 188.249 150.073L193.97 155.433L203.195 137.897C203.442 137.431 204.014 137.25 204.48 137.497C204.947 137.745 205.127 138.316 204.88 138.783L195.074 157.423C194.932 157.689 194.684 157.87 194.389 157.918C194.341 157.918 194.284 157.927 194.237 157.927Z" fill="#1A1340"/>
<path d="M277.479 200.482C277.46 200.482 277.441 200.482 277.432 200.482C277.175 200.453 276.984 200.225 277.013 199.958C277.089 199.168 277.175 198.321 277.318 197.445L278.936 183.86C275.928 184.783 273.281 186.744 270.711 188.639C270.149 189.058 269.587 189.467 269.026 189.867C266.122 191.952 261.752 194.636 257.154 193.97C256.65 193.894 256.155 193.789 255.66 193.675C254.984 193.523 254.346 193.38 253.698 193.332C252.642 193.256 251.547 193.456 250.5 193.646L241.227 195.331C241.056 195.369 240.885 195.303 240.78 195.17C240.666 195.036 240.637 194.855 240.694 194.703C240.885 194.17 240.856 193.551 240.618 193.037L236.286 197.883C236.144 198.035 235.925 198.083 235.744 197.997C235.553 197.911 235.439 197.721 235.458 197.511C235.887 193.256 236.705 188.953 237.553 184.755C232.45 190.305 225.405 193.808 219.141 196.931C218.903 197.045 218.617 196.95 218.503 196.712C218.389 196.474 218.484 196.188 218.722 196.074C225.415 192.742 232.992 188.972 238.019 182.765C238.162 182.594 238.4 182.536 238.59 182.632C238.79 182.727 238.895 182.946 238.857 183.155C237.99 187.401 237.105 191.79 236.581 196.122L240.342 191.914C240.437 191.809 240.57 191.761 240.704 191.752C240.837 191.752 240.97 191.818 241.065 191.923C241.599 192.571 241.856 193.427 241.779 194.256L250.347 192.694C251.461 192.494 252.604 192.285 253.784 192.361C254.508 192.409 255.212 192.571 255.888 192.723C256.364 192.828 256.831 192.942 257.307 193.008C261.562 193.627 265.722 191.057 268.493 189.077C269.054 188.677 269.606 188.268 270.159 187.849C272.986 185.754 275.918 183.584 279.393 182.717C279.545 182.679 279.707 182.717 279.821 182.822C279.936 182.927 279.993 183.079 279.983 183.231L278.812 193.066C278.869 192.97 278.936 192.875 279.003 192.77C280.488 190.628 283.629 189.305 285.943 190.752C286.257 190.952 286.542 191.19 286.809 191.419C287.171 191.723 287.514 192.018 287.904 192.18C288.799 192.552 289.865 192.256 290.912 191.971C298.166 189.981 305.63 189.324 313.122 190.01C313.379 190.038 313.579 190.267 313.551 190.524C313.532 190.79 313.294 190.981 313.037 190.952C305.668 190.276 298.309 190.924 291.169 192.885C290.027 193.199 288.732 193.551 287.542 193.047C287.018 192.828 286.6 192.475 286.2 192.133C285.943 191.914 285.695 191.714 285.438 191.542C283.62 190.4 281.002 191.552 279.793 193.294C278.945 194.522 278.536 195.988 278.289 197.464L277.984 199.996C277.917 200.31 277.717 200.482 277.479 200.482Z" fill="#1A1340"/>
<path d="M202.357 202.671C202.119 202.671 201.881 202.576 201.71 202.414L195.074 196.207C194.694 195.845 194.675 195.246 195.027 194.865C195.389 194.484 195.988 194.465 196.369 194.817L202.091 200.177L211.316 182.641C211.563 182.175 212.134 181.994 212.601 182.241C213.067 182.489 213.248 183.06 213.001 183.527L203.195 202.167C203.052 202.433 202.805 202.614 202.51 202.662C202.462 202.662 202.405 202.671 202.357 202.671Z" fill="#1A1340"/>
<path d="M284.267 248.558C284.248 248.558 284.229 248.558 284.22 248.558C283.963 248.529 283.772 248.301 283.801 248.034C283.877 247.253 283.963 246.406 284.096 245.54L285.724 231.936C282.716 232.859 280.069 234.82 277.499 236.715C276.937 237.134 276.375 237.543 275.814 237.943C272.919 240.028 268.531 242.712 263.942 242.046C263.438 241.97 262.942 241.856 262.447 241.751C261.771 241.599 261.143 241.456 260.486 241.408C259.43 241.332 258.335 241.532 257.288 241.722L248.015 243.407C247.844 243.436 247.672 243.379 247.568 243.246C247.453 243.112 247.425 242.931 247.482 242.779C247.682 242.246 247.644 241.627 247.406 241.113L243.074 245.959C242.931 246.111 242.712 246.159 242.522 246.073C242.332 245.987 242.217 245.797 242.246 245.587C242.674 241.323 243.493 237.029 244.34 232.831C239.238 238.381 232.193 241.884 225.929 245.007C225.691 245.131 225.405 245.026 225.291 244.797C225.177 244.559 225.272 244.274 225.51 244.159C232.202 240.827 239.78 237.058 244.807 230.851C244.95 230.679 245.178 230.622 245.378 230.717C245.578 230.812 245.683 231.031 245.645 231.241C244.778 235.487 243.893 239.866 243.369 244.207L247.13 239.999C247.225 239.895 247.387 239.837 247.492 239.837C247.634 239.837 247.758 239.904 247.853 240.009C248.396 240.656 248.643 241.513 248.567 242.341L257.135 240.78C258.249 240.58 259.401 240.371 260.572 240.456C261.295 240.504 262 240.666 262.676 240.818C263.152 240.923 263.618 241.037 264.094 241.104C268.35 241.722 272.51 239.161 275.28 237.172C275.842 236.772 276.394 236.363 276.946 235.944C279.774 233.849 282.706 231.679 286.181 230.812C286.333 230.774 286.495 230.812 286.609 230.917C286.723 231.022 286.781 231.174 286.771 231.327L285.6 241.161C285.667 241.065 285.724 240.961 285.79 240.866C287.276 238.724 290.417 237.4 292.731 238.847C293.045 239.047 293.33 239.285 293.606 239.514C293.968 239.818 294.311 240.113 294.701 240.275C295.587 240.647 296.662 240.351 297.7 240.066C304.954 238.076 312.427 237.419 319.91 238.105C320.167 238.133 320.367 238.362 320.339 238.619C320.319 238.885 320.082 239.066 319.824 239.047C312.456 238.371 305.097 239.019 297.957 240.98C296.815 241.294 295.529 241.646 294.339 241.142C293.816 240.923 293.397 240.57 292.997 240.228C292.74 240.009 292.493 239.809 292.236 239.637C290.417 238.495 287.799 239.637 286.59 241.389C285.733 242.627 285.324 244.093 285.086 245.578L284.781 248.091C284.705 248.386 284.505 248.558 284.267 248.558Z" fill="#1A1340"/>
<path d="M209.135 250.747C208.897 250.747 208.659 250.662 208.488 250.49L201.853 244.283C201.472 243.921 201.453 243.322 201.805 242.941C202.157 242.56 202.767 242.541 203.147 242.893L208.869 248.253L218.094 230.717C218.341 230.251 218.912 230.07 219.379 230.317C219.845 230.565 220.026 231.136 219.779 231.603L209.973 250.243C209.83 250.509 209.583 250.69 209.288 250.738C209.24 250.738 209.193 250.747 209.135 250.747Z" fill="#1A1340"/>
<path d="M290.865 296.634C290.846 296.634 290.826 296.634 290.817 296.634C290.56 296.605 290.37 296.377 290.398 296.11C290.474 295.329 290.56 294.482 290.693 293.616L292.321 280.012C289.313 280.935 286.666 282.896 284.096 284.791C283.534 285.21 282.972 285.619 282.411 286.019C279.517 288.104 275.128 290.779 270.539 290.122C270.035 290.046 269.54 289.932 269.045 289.827C268.369 289.675 267.74 289.532 267.084 289.484C266.027 289.408 264.932 289.608 263.885 289.798L254.612 291.483C254.441 291.512 254.27 291.455 254.165 291.322C254.051 291.188 254.022 291.007 254.079 290.855C254.279 290.322 254.241 289.703 254.003 289.189L249.672 294.035C249.529 294.187 249.31 294.235 249.119 294.149C248.929 294.063 248.815 293.873 248.843 293.663C249.272 289.408 250.09 285.105 250.938 280.907C245.835 286.457 238.79 289.96 232.526 293.083C232.288 293.197 232.002 293.102 231.888 292.873C231.774 292.635 231.869 292.35 232.107 292.235C238.8 288.903 246.378 285.133 251.404 278.926C251.547 278.755 251.775 278.698 251.975 278.793C252.175 278.888 252.28 279.107 252.242 279.317C251.376 283.563 250.49 287.951 249.967 292.283L253.727 288.075C253.822 287.97 253.936 287.904 254.089 287.913C254.222 287.913 254.355 287.98 254.451 288.085C254.984 288.732 255.241 289.589 255.165 290.417L263.733 288.856C264.846 288.656 265.989 288.446 267.169 288.532C267.893 288.58 268.597 288.742 269.273 288.894C269.749 288.999 270.216 289.113 270.692 289.18C274.947 289.798 279.107 287.237 281.878 285.248C282.439 284.848 282.992 284.439 283.544 284.02C286.371 281.925 289.303 279.755 292.778 278.888C292.93 278.85 293.092 278.888 293.206 278.993C293.321 279.098 293.378 279.25 293.368 279.402L292.197 289.237C292.254 289.141 292.321 289.037 292.388 288.951C293.873 286.809 297.014 285.486 299.328 286.933C299.642 287.133 299.928 287.371 300.204 287.599C300.565 287.904 300.908 288.199 301.298 288.361C302.184 288.732 303.26 288.437 304.297 288.151C311.552 286.162 319.025 285.505 326.507 286.19C326.764 286.219 326.964 286.447 326.936 286.704C326.907 286.961 326.669 287.152 326.422 287.133C319.044 286.457 311.685 287.104 304.554 289.065C303.412 289.379 302.127 289.732 300.927 289.227C300.404 289.008 299.985 288.656 299.585 288.313C299.328 288.094 299.08 287.894 298.823 287.723C297.005 286.581 294.387 287.723 293.178 289.475C292.321 290.703 291.912 292.178 291.674 293.663L291.369 296.177C291.312 296.462 291.103 296.634 290.865 296.634Z" fill="#1A1340"/>
<path d="M215.742 298.823C215.504 298.823 215.266 298.738 215.095 298.566L208.46 292.359C208.079 291.997 208.06 291.398 208.412 291.017C208.774 290.636 209.373 290.617 209.754 290.969L215.476 296.329L224.701 278.793C224.948 278.327 225.519 278.146 225.986 278.393C226.452 278.641 226.633 279.212 226.386 279.679L216.58 298.319C216.437 298.585 216.19 298.766 215.895 298.814C215.847 298.814 215.799 298.823 215.742 298.823Z" fill="#1A1340"/>
<path d="M270.378 356.343C270.14 356.343 269.902 356.257 269.73 356.086L259.734 346.728C259.353 346.366 259.334 345.766 259.687 345.386C260.048 345.005 260.648 344.986 261.029 345.338L270.111 353.839L284.315 326.86C284.562 326.393 285.134 326.212 285.6 326.46C286.067 326.707 286.247 327.279 286 327.745L271.215 355.829C271.073 356.096 270.825 356.276 270.53 356.324C270.482 356.334 270.425 356.343 270.378 356.343Z" fill="#6D74F2"/>
<path d="M152.977 211.972C152.796 211.972 152.615 211.925 152.453 211.811L131.367 197.749C131.071 197.55 130.91 197.207 130.948 196.855C130.986 196.502 131.214 196.198 131.547 196.074L142.457 191.828L112.841 161.117C112.479 160.736 112.488 160.136 112.869 159.774C113.25 159.412 113.85 159.422 114.212 159.803L144.818 191.542C145.037 191.771 145.133 192.095 145.066 192.409C144.999 192.723 144.78 192.98 144.485 193.094L133.946 197.188L153.51 210.23C153.948 210.525 154.062 211.116 153.777 211.553C153.586 211.82 153.282 211.972 152.977 211.972Z" fill="#47C9AA"/>
<path d="M153.205 236.229C153.186 236.229 153.177 236.229 153.158 236.229L130.71 235.096C130.395 235.077 130.11 234.916 129.948 234.649C129.786 234.382 129.758 234.049 129.881 233.764L131.014 231.174L96.9708 222.825C96.4567 222.701 96.152 222.187 96.2758 221.673C96.3996 221.159 96.9136 220.854 97.4277 220.978L132.576 229.594C132.852 229.661 133.08 229.841 133.204 230.098C133.328 230.355 133.337 230.641 133.223 230.898L132.185 233.259L153.253 234.325C153.777 234.354 154.186 234.801 154.157 235.325C154.129 235.839 153.71 236.229 153.205 236.229Z" fill="#47C9AA"/>
<path d="M103.549 301.755C103.33 301.755 103.102 301.679 102.921 301.517C102.521 301.165 102.483 300.565 102.835 300.175L130.948 268.207C131.195 267.931 131.585 267.817 131.938 267.921C132.29 268.026 132.557 268.331 132.604 268.702L133.489 275.042L156.633 253.394C157.013 253.032 157.623 253.051 157.975 253.441C158.337 253.822 158.318 254.432 157.927 254.784L133.442 277.679C133.185 277.917 132.804 278.003 132.471 277.879C132.138 277.765 131.9 277.47 131.843 277.118L130.995 271.015L104.254 301.422C104.073 301.641 103.816 301.755 103.549 301.755Z" fill="#47C9AA"/>
<path d="M338.446 201.767C338.255 201.767 338.055 201.71 337.893 201.586C337.465 201.281 337.37 200.682 337.674 200.253L351.935 180.461L344.681 179.528C344.357 179.49 344.081 179.281 343.939 178.986C343.796 178.69 343.824 178.348 343.996 178.072L363.045 147.912C363.321 147.465 363.912 147.332 364.359 147.617C364.806 147.893 364.94 148.483 364.654 148.931L346.404 177.824L353.763 178.767C354.096 178.805 354.382 179.024 354.515 179.328C354.649 179.633 354.61 179.995 354.411 180.261L339.217 201.348C339.026 201.634 338.741 201.767 338.446 201.767Z" fill="#47C9AA"/>
<path d="M342.301 219.684C341.901 219.684 341.54 219.436 341.397 219.046C341.225 218.551 341.492 218.008 341.987 217.837L358.952 211.972L355.439 208.279C355.21 208.041 355.125 207.688 355.21 207.374C355.296 207.051 355.553 206.803 355.867 206.708L378.544 200.358C379.048 200.215 379.572 200.51 379.715 201.015C379.858 201.519 379.562 202.043 379.058 202.186L357.914 208.107L361.36 211.725C361.589 211.963 361.674 212.296 361.598 212.61C361.522 212.924 361.294 213.181 360.989 213.286L342.625 219.636C342.501 219.665 342.396 219.684 342.301 219.684Z" fill="#47C9AA"/>
<path d="M378.572 273.186C378.296 273.186 378.02 273.062 377.83 272.834L364.997 257.097L363.626 262.923C363.54 263.285 363.255 263.561 362.893 263.637C362.531 263.714 362.16 263.571 361.941 263.276L341.083 235.611C340.768 235.192 340.854 234.592 341.273 234.278C341.692 233.964 342.292 234.049 342.606 234.468L362.246 260.505L363.597 254.774C363.683 254.422 363.959 254.146 364.311 254.06C364.664 253.984 365.035 254.108 365.263 254.384L379.324 271.615C379.658 272.025 379.6 272.624 379.191 272.957C379.001 273.119 378.782 273.186 378.572 273.186Z" fill="#47C9AA"/>
</svg>
