<svg width="72" height="69" viewBox="0 0 72 69" fill="none" xmlns="http://www.w3.org/2000/svg">
<g clip-path="url(#clip0_82_329)">
<mask id="mask0_82_329" style="mask-type:luminance" maskUnits="userSpaceOnUse" x="0" y="0" width="71" height="69">
<path d="M70.9385 0H0.75V69H70.9385V0Z" fill="white"/>
</mask>
<g mask="url(#mask0_82_329)">
<path d="M13.1792 0H58.5093C65.3819 0 70.9385 5.60257 70.9385 12.532V56.468C70.9385 63.3975 65.3819 69 58.5093 69H13.1792C6.30659 69 0.75 63.3975 0.75 56.468V12.532C0.75 5.60257 6.30659 0 13.1792 0Z" fill="#00005B"/>
<path d="M17.4198 48.3884V18.0461C17.4198 17.8397 17.5075 17.7217 17.7123 17.7217C18.2094 17.7217 18.6774 17.7217 19.35 17.6922C20.0518 17.6627 20.783 17.6627 21.5726 17.6333C22.3623 17.6038 23.2103 17.6038 24.1169 17.5743C25.0236 17.5448 25.9009 17.5448 26.7783 17.5448C29.1764 17.5448 31.1651 17.8397 32.8028 18.4589C34.265 18.9602 35.6103 19.7858 36.7216 20.8768C37.6575 21.8205 38.3886 22.9704 38.8565 24.2384C39.2952 25.4769 39.5291 26.7448 39.5291 28.0717C39.5291 30.6076 38.9443 32.7012 37.7745 34.3525C36.6046 36.0038 34.9669 37.2422 33.066 37.9499C31.0773 38.6871 28.8839 38.9525 26.4858 38.9525C25.7839 38.9525 25.316 38.9525 25.0236 38.923C24.7311 38.8935 24.3217 38.8935 23.766 38.8935V48.3589C23.7953 48.5653 23.649 48.7422 23.4443 48.7717C23.415 48.7717 23.3858 48.7717 23.3273 48.7717H17.7707C17.5367 48.7717 17.4198 48.6538 17.4198 48.3884ZM23.7953 23.4127V33.3204C24.2047 33.3499 24.5849 33.3794 24.9358 33.3794H26.4858C27.6263 33.3794 28.7669 33.2025 29.849 32.8487C30.7848 32.5833 31.6037 32.023 32.2471 31.2858C32.8613 30.5486 33.1537 29.5461 33.1537 28.2487C33.1829 27.3345 32.949 26.4204 32.481 25.6243C31.9839 24.8576 31.282 24.2679 30.4339 23.9435C29.3518 23.5012 28.182 23.3243 26.983 23.3537C26.2226 23.3537 25.55 23.3537 24.9943 23.3832C24.4094 23.3537 24 23.3832 23.7953 23.4127Z" fill="#9999FF"/>
<path d="M43.6235 25.1229H48.7414C49.0339 25.1229 49.2678 25.3294 49.3555 25.5947C49.4433 25.8306 49.5018 26.0666 49.5311 26.3319C49.5895 26.6268 49.648 26.9511 49.6772 27.246C49.7065 27.5703 49.7358 27.9242 49.7358 28.3075C50.6131 27.2755 51.6659 26.4204 52.865 25.7717C54.2102 25.005 55.7602 24.6216 57.3103 24.6216C57.515 24.5921 57.6904 24.7396 57.7197 24.946C57.7197 24.9755 57.7197 25.005 57.7197 25.064V30.8139C57.7197 31.0498 57.5735 31.1383 57.2517 31.1383C56.1989 31.1088 55.1169 31.1973 54.0933 31.4332C53.2451 31.6101 52.4263 31.8755 51.6367 32.2293C51.081 32.4947 50.5546 32.8486 50.1452 33.3204V48.3588C50.1452 48.6537 50.0282 48.7716 49.765 48.7716H44.0037C43.7697 48.8011 43.565 48.6537 43.5357 48.4178C43.5357 48.3883 43.5357 48.3293 43.5357 48.2998V31.964C43.5357 31.2562 43.5357 30.519 43.5065 29.7525C43.4772 28.9858 43.4772 28.2191 43.448 27.4524C43.448 26.7742 43.3896 26.1255 43.331 25.4473C43.3018 25.2999 43.3896 25.1524 43.5357 25.1229C43.5357 25.0934 43.5943 25.0934 43.6235 25.1229Z" fill="#9999FF"/>
</g>
</g>
<defs>
<clipPath id="clip0_82_329">
<rect width="71" height="69" fill="white" transform="translate(0.75)"/>
</clipPath>
</defs>
</svg>
