<svg width="73" height="69" viewBox="0 0 73 69" fill="none" xmlns="http://www.w3.org/2000/svg">
<g clip-path="url(#clip0_82_337)">
<mask id="mask0_82_337" style="mask-type:luminance" maskUnits="userSpaceOnUse" x="0" y="0" width="72" height="69">
<path d="M71.927 0H0.75V69H71.927V0Z" fill="white"/>
</mask>
<g mask="url(#mask0_82_337)">
<path d="M59.3228 0H13.3543C6.39312 0 0.75 5.61079 0.75 12.532V56.468C0.75 63.3892 6.39312 69 13.3543 69H59.3228C66.2839 69 71.927 63.3892 71.927 56.468V12.532C71.927 5.61079 66.2839 0 59.3228 0Z" fill="#001E36"/>
<path d="M16.7772 48.3868V18.0507C16.7772 17.8297 16.8727 17.7184 17.0637 17.7184C17.5725 17.7184 18.037 17.711 18.7376 17.6947C19.4375 17.6791 20.1935 17.6633 21.0056 17.6473C21.8174 17.6316 22.6769 17.6158 23.5841 17.5997C24.4912 17.5841 25.3904 17.5763 26.2817 17.5759C28.7005 17.5759 30.7378 17.8766 32.3934 18.478C33.887 18.9803 35.249 19.8074 36.3805 20.8991C37.3396 21.8455 38.0808 22.9874 38.553 24.2462C38.9996 25.4712 39.226 26.7647 39.2215 28.0678C39.2215 30.6003 38.6326 32.6892 37.4548 34.3344C36.2693 35.9865 34.6028 37.2375 32.68 37.9188C30.6746 38.6628 28.4461 38.915 25.9953 38.915C25.2947 38.915 24.8013 38.9072 24.5151 38.8913C24.2286 38.8757 23.799 38.8678 23.226 38.8676V48.3394C23.2343 48.3975 23.2289 48.4566 23.2103 48.5123C23.1916 48.5679 23.1602 48.6184 23.1185 48.6598C23.0768 48.7013 23.026 48.7325 22.97 48.7511C22.9141 48.7696 22.8545 48.775 22.7962 48.7667H17.1115C16.8884 48.7667 16.7772 48.6405 16.7772 48.3868ZM23.226 23.4153V33.3097C23.6393 33.3417 24.0212 33.3574 24.3718 33.3572H25.9475C27.1069 33.3534 28.2586 33.1705 29.3616 32.8153C30.3075 32.5359 31.1528 31.9921 31.7967 31.2486C32.4174 30.5209 32.7277 29.5082 32.7278 28.2103C32.753 27.2919 32.5127 26.3857 32.0353 25.5992C31.5336 24.8385 30.8084 24.2501 29.9583 23.9138C28.8485 23.4849 27.6629 23.2831 26.4728 23.3204C25.7087 23.3204 25.0323 23.3283 24.4436 23.3441C23.8541 23.3605 23.4483 23.3842 23.226 23.4153Z" fill="#31A8FF"/>
<path d="M57.683 31.5106C56.7857 31.0522 55.83 30.7168 54.842 30.5136C53.7533 30.2653 52.6404 30.1379 51.5235 30.1338C50.9194 30.1176 50.3161 30.1895 49.733 30.3475C49.3618 30.4296 49.0319 30.6399 48.8018 30.9409C48.6462 31.1816 48.5634 31.4618 48.5632 31.7479C48.5719 32.0256 48.6726 32.2926 48.8496 32.5075C49.1285 32.8319 49.4694 33.0982 49.8523 33.2909C50.533 33.6554 51.2346 33.9803 51.9532 34.2641C53.5557 34.7975 55.0869 35.5228 56.5131 36.4242C57.4847 37.0339 58.2887 37.874 58.8528 38.8691C59.3272 39.8114 59.5647 40.854 59.5452 41.9075C59.5737 43.2986 59.1739 44.6653 58.3993 45.8241C57.5699 47.0005 56.418 47.9151 55.0807 48.4589C53.6318 49.0917 51.8413 49.4082 49.7091 49.4084C48.3546 49.422 47.0023 49.2947 45.6743 49.0286C44.6282 48.8379 43.6097 48.519 42.6424 48.0791C42.5379 48.0256 42.4511 47.9435 42.3919 47.8426C42.3327 47.7417 42.3036 47.6261 42.3081 47.5094V42.3822C42.3024 42.332 42.3105 42.2812 42.3315 42.2352C42.3525 42.1892 42.3858 42.1498 42.4276 42.121C42.4686 42.098 42.5157 42.0879 42.5626 42.0922C42.6095 42.0965 42.654 42.1148 42.6902 42.1449C43.8325 42.8146 45.0729 43.3031 46.3667 43.5928C47.507 43.877 48.6767 44.0283 49.8523 44.0438C50.9662 44.0438 51.7858 43.9013 52.3113 43.6165C52.5486 43.5086 52.7493 43.3345 52.8892 43.1154C53.029 42.8964 53.102 42.6417 53.0992 42.3822C53.0992 41.9712 52.8605 41.5757 52.383 41.1953C51.9056 40.8156 50.9347 40.3566 49.4703 39.8185C47.9711 39.2997 46.5495 38.5811 45.2446 37.6823C44.3113 37.0369 43.5427 36.1833 43.0005 35.1898C42.5309 34.2544 42.2935 33.2207 42.3081 32.1752C42.3054 30.9191 42.6525 29.6867 43.3108 28.6146C44.0614 27.4341 45.1392 26.4943 46.4145 25.9086C47.8148 25.2128 49.5656 24.8647 51.6668 24.8642C52.8973 24.8543 54.1267 24.9416 55.3433 25.1252C56.2244 25.2364 57.0857 25.468 57.903 25.8137C57.9678 25.8321 58.0274 25.8653 58.0771 25.9106C58.1268 25.956 58.1653 26.0121 58.1894 26.0748C58.2217 26.1907 58.2377 26.3105 58.2372 26.4308V31.2257C58.2405 31.2815 58.229 31.3372 58.2039 31.3872C58.1787 31.4372 58.1408 31.4797 58.094 31.5106C58.0301 31.5421 57.9598 31.5586 57.8885 31.5586C57.8172 31.5586 57.7468 31.5421 57.683 31.5106Z" fill="#31A8FF"/>
</g>
</g>
<defs>
<clipPath id="clip0_82_337">
<rect width="72" height="69" fill="white" transform="translate(0.75)"/>
</clipPath>
</defs>
</svg>
