<svg width="70" height="69" viewBox="0 0 70 69" fill="none" xmlns="http://www.w3.org/2000/svg">
<g clip-path="url(#clip0_82_318)">
<mask id="mask0_82_318" style="mask-type:alpha" maskUnits="userSpaceOnUse" x="0" y="0" width="70" height="69">
<path fill-rule="evenodd" clip-rule="evenodd" d="M49.6793 68.5287C50.2282 68.7429 50.8153 68.8417 51.4041 68.8192C51.9929 68.7966 52.5708 68.6531 53.1017 68.3976L67.3081 61.5618C68.0398 61.2096 68.6571 60.6579 69.0891 59.9703C69.5211 59.2827 69.7502 58.4871 69.75 57.675V11.325C69.75 10.513 69.5208 9.71745 69.0887 9.02997C68.6566 8.34249 68.0391 7.79097 67.3074 7.43889L53.1031 0.603056C52.3003 0.216803 51.3973 0.0896667 50.5191 0.239248C49.6409 0.38883 48.8309 0.807729 48.2013 1.43796L21.005 26.2476L9.15904 17.2569C8.62471 16.8511 7.96518 16.6452 7.29489 16.675C6.62461 16.7047 5.9859 16.9682 5.48962 17.4197L1.69048 20.8759C1.39449 21.1453 1.15796 21.4734 0.99603 21.8394C0.834097 22.2053 0.750321 22.601 0.750062 23.0012C0.749802 23.4014 0.833063 23.7972 0.994521 24.1634C1.15598 24.5296 1.39208 24.858 1.68772 25.1277L11.9604 34.5L1.68841 43.8723C1.39277 44.142 1.15667 44.4704 0.995211 44.8366C0.833753 45.2028 0.750492 45.5986 0.750752 45.9988C0.751011 46.399 0.834787 46.7947 0.99672 47.1606C1.15865 47.5266 1.39518 47.8547 1.69117 48.124L5.49031 51.5809C5.98659 52.0325 6.6253 52.296 7.29558 52.3257C7.96586 52.3555 8.6254 52.1496 9.15973 51.7438L21.0057 42.7517L48.2013 67.5627C48.6219 67.9838 49.1247 68.3128 49.6793 68.5287ZM52.5104 18.837L31.8759 34.5L52.5111 50.1637L52.5104 18.837Z" fill="white"/>
</mask>
<g mask="url(#mask0_82_318)">
<path d="M67.308 7.44893L53.0912 0.60413C52.2883 0.217551 51.3851 0.0900434 50.5066 0.239246C49.6281 0.388449 48.8176 0.806988 48.1874 1.43696L1.64619 43.872C1.35045 44.1416 1.11426 44.47 0.952745 44.8362C0.791226 45.2024 0.707932 45.5982 0.708192 45.9985C0.708451 46.3987 0.79226 46.7944 0.954254 47.1604C1.11625 47.5264 1.35286 47.8545 1.64895 48.1237L5.45085 51.5799C5.94754 52.0312 6.58643 52.2945 7.25684 52.3242C7.92725 52.354 8.58695 52.1483 9.12165 51.7428L65.169 9.22499C67.0492 7.79876 69.7499 9.13943 69.7499 11.4999V11.3343C69.7497 10.5226 69.5204 9.72746 69.0885 9.04025C68.6565 8.35304 68.0393 7.8017 67.308 7.44962V7.44893Z" fill="#0065A9"/>
<g filter="url(#filter0_d_82_318)">
<path d="M67.3081 61.5508L53.0913 68.3955C52.2885 68.7822 51.3853 68.9098 50.5067 68.7606C49.6281 68.6114 48.8177 68.1928 48.1875 67.5627L1.64631 25.1277C1.35057 24.8581 1.11439 24.5296 0.952867 24.1635C0.791349 23.7973 0.708054 23.4014 0.708314 23.0012C0.708573 22.601 0.792382 22.2053 0.954376 21.8393C1.11637 21.4733 1.35298 21.1452 1.64907 20.8759L5.45097 17.4197C5.94766 16.9685 6.58655 16.7052 7.25696 16.6754C7.92737 16.6457 8.58707 16.8514 9.12177 17.2569L65.1691 59.7747C67.0493 61.2009 69.75 59.8602 69.75 57.4998V57.6654C69.7498 58.4771 69.5206 59.2722 69.0886 59.9594C68.6566 60.6466 68.0395 61.1987 67.3081 61.5508Z" fill="#007ACC"/>
</g>
<g filter="url(#filter1_d_82_318)">
<path d="M53.092 68.3969C52.2888 68.7832 51.3854 68.9104 50.5068 68.7608C49.6281 68.6112 48.8177 68.1923 48.1875 67.562C49.7786 69.1539 52.5 68.0271 52.5 65.7763V3.22368C52.5 0.972902 49.7786 -0.153868 48.1875 1.43727C48.8177 0.806989 49.6281 0.388093 50.5068 0.238522C51.3854 0.0889515 52.2888 0.216096 53.092 0.602372L67.306 7.43889C68.038 7.79078 68.6557 8.34221 69.0881 9.02971C69.5204 9.7172 69.7499 10.5128 69.75 11.325V57.675C69.7501 58.4872 69.5208 59.2829 69.0885 59.9706C68.6563 60.6582 68.0386 61.2098 67.3067 61.5618L53.092 68.3969Z" fill="#1F9CF0"/>
</g>
<path style="mix-blend-mode:overlay" opacity="0.25" fill-rule="evenodd" clip-rule="evenodd" d="M49.6372 68.5289C50.1861 68.743 50.7732 68.8418 51.362 68.8193C51.9508 68.7967 52.5286 68.6532 53.0596 68.3978L67.266 61.562C67.9978 61.2098 68.6153 60.6582 69.0474 59.9706C69.4796 59.283 69.7087 58.4873 69.7086 57.6752V11.3251C69.7086 10.5131 69.4794 9.71762 69.0472 9.03013C68.6151 8.34265 67.9977 7.79114 67.266 7.43905L53.0603 0.603224C52.2575 0.216971 51.3545 0.0898345 50.4763 0.239416C49.5981 0.388997 48.7881 0.807897 48.1585 1.43812L20.9628 26.2478L9.11693 17.2571C8.58266 16.8515 7.92326 16.6457 7.25313 16.6754C6.583 16.7052 5.94443 16.9686 5.4482 17.4199L1.64837 20.8761C1.35237 21.1454 1.11585 21.4736 0.953916 21.8395C0.791983 22.2055 0.708207 22.6012 0.707947 23.0014C0.707688 23.4016 0.790949 23.7974 0.952407 24.1636C1.11386 24.5297 1.34996 24.8582 1.64561 25.1279L11.9183 34.5002L1.64561 43.8724C1.34996 44.1421 1.11386 44.4706 0.952407 44.8367C0.790949 45.2029 0.707688 45.5987 0.707947 45.9989C0.708207 46.3991 0.791983 46.7948 0.953916 47.1608C1.11585 47.5268 1.35237 47.8549 1.64837 48.1242L5.4482 51.5804C5.94443 52.0318 6.583 52.2952 7.25313 52.3249C7.92326 52.3546 8.58266 52.1489 9.11693 51.7433L20.9628 42.7526L48.1585 67.5636C48.5791 67.9846 49.0826 68.3129 49.6372 68.5289ZM52.4682 18.8372L31.8331 34.5002L52.4682 50.1638V18.8372Z" fill="url(#paint0_linear_82_318)"/>
</g>
</g>
<defs>
<filter id="filter0_d_82_318" x="-7.62569" y="8.33861" width="85.7097" height="68.8167" filterUnits="userSpaceOnUse" color-interpolation-filters="sRGB">
<feFlood flood-opacity="0" result="BackgroundImageFix"/>
<feColorMatrix in="SourceAlpha" type="matrix" values="0 0 0 0 0 0 0 0 0 0 0 0 0 0 0 0 0 0 127 0" result="hardAlpha"/>
<feOffset/>
<feGaussianBlur stdDeviation="4.167"/>
<feColorMatrix type="matrix" values="0 0 0 0 0 0 0 0 0 0 0 0 0 0 0 0 0 0 0.25 0"/>
<feBlend mode="overlay" in2="BackgroundImageFix" result="effect1_dropShadow_82_318"/>
<feBlend mode="normal" in="SourceGraphic" in2="effect1_dropShadow_82_318" result="shape"/>
</filter>
<filter id="filter1_d_82_318" x="39.8535" y="-8.15646" width="38.2305" height="85.3122" filterUnits="userSpaceOnUse" color-interpolation-filters="sRGB">
<feFlood flood-opacity="0" result="BackgroundImageFix"/>
<feColorMatrix in="SourceAlpha" type="matrix" values="0 0 0 0 0 0 0 0 0 0 0 0 0 0 0 0 0 0 127 0" result="hardAlpha"/>
<feOffset/>
<feGaussianBlur stdDeviation="4.167"/>
<feColorMatrix type="matrix" values="0 0 0 0 0 0 0 0 0 0 0 0 0 0 0 0 0 0 0.25 0"/>
<feBlend mode="overlay" in2="BackgroundImageFix" result="effect1_dropShadow_82_318"/>
<feBlend mode="normal" in="SourceGraphic" in2="effect1_dropShadow_82_318" result="shape"/>
</filter>
<linearGradient id="paint0_linear_82_318" x1="35.2079" y1="0.178184" x2="35.2079" y2="68.8221" gradientUnits="userSpaceOnUse">
<stop stop-color="white"/>
<stop offset="1" stop-color="white" stop-opacity="0"/>
</linearGradient>
<clipPath id="clip0_82_318">
<rect width="69" height="69" fill="white" transform="translate(0.75)"/>
</clipPath>
</defs>
</svg>
